<?xml version="1.0" encoding="us-ascii" standalone="no"?><svg xmlns="http://www.w3.org/2000/svg" xmlns:xlink="http://www.w3.org/1999/xlink" contentStyleType="text/css" height="1215px" preserveAspectRatio="none" style="width:2327px;height:1215px;background:#FFFFFF;" version="1.1" viewBox="0 0 2327 1215" width="2327px" zoomAndPan="magnify"><defs/><g><!--cluster scenarioengine--><g id="cluster_scenarioengine"><path d="M8.5,6 L131.5,6 A3.75,3.75 0 0 1 134,8.5 L141,28.2969 L2317.5,28.2969 A2.5,2.5 0 0 1 2320,30.7969 L2320,1205.5 A2.5,2.5 0 0 1 2317.5,1208 L8.5,1208 A2.5,2.5 0 0 1 6,1205.5 L6,8.5 A2.5,2.5 0 0 1 8.5,6 " fill="none" style="stroke:#000000;stroke-width:1.5;"/><line style="stroke:#000000;stroke-width:1.5;" x1="6" x2="141" y1="28.2969" y2="28.2969"/><text fill="#000000" font-family="sans-serif" font-size="14" font-weight="bold" lengthAdjust="spacing" textLength="122" x="10" y="20.9951">scenarioengine</text></g><!--class ScenarioEngine--><g id="elem_ScenarioEngine"><rect codeLine="9" fill="#F1F1F1" height="1025.8125" id="ScenarioEngine" rx="2.5" ry="2.5" style="stroke:#181818;stroke-width:0.5;" width="1222" x="14" y="33"/><ellipse cx="566.75" cy="49" fill="#ADD1B2" rx="11" ry="11" style="stroke:#181818;stroke-width:1.0;"/><path d="M569.7188,54.6406 Q569.1406,54.9375 568.5,55.0781 Q567.8594,55.2344 567.1563,55.2344 Q564.6563,55.2344 563.3281,53.5938 Q562.0156,51.9375 562.0156,48.8125 Q562.0156,45.6875 563.3281,44.0313 Q564.6563,42.375 567.1563,42.375 Q567.8594,42.375 568.5,42.5313 Q569.1563,42.6875 569.7188,42.9844 L569.7188,45.7031 Q569.0938,45.125 568.5,44.8594 Q567.9063,44.5781 567.2813,44.5781 Q565.9375,44.5781 565.25,45.6563 Q564.5625,46.7188 564.5625,48.8125 Q564.5625,50.9063 565.25,51.9844 Q565.9375,53.0469 567.2813,53.0469 Q567.9063,53.0469 568.5,52.7813 Q569.0938,52.5 569.7188,51.9219 L569.7188,54.6406 Z " fill="#000000"/><text fill="#000000" font-family="sans-serif" font-size="14" lengthAdjust="spacing" textLength="108" x="587.25" y="53.8467">ScenarioEngine</text><line style="stroke:#181818;stroke-width:0.5;" x1="15" x2="1235" y1="65" y2="65"/><rect fill="none" height="6" style="stroke:#C82930;stroke-width:1.0;" width="6" x="22" y="75.6484"/><text fill="#000000" font-family="sans-serif" font-size="14" lengthAdjust="spacing" textLength="131" x="34" y="81.9951">catalogs : Catalogs</text><ellipse cx="25" cy="94.9453" fill="none" rx="3" ry="3" style="stroke:#038048;stroke-width:1.0;"/><text fill="#000000" font-family="sans-serif" font-size="14" lengthAdjust="spacing" textLength="122" x="34" y="98.292">entities_ : Entities</text><rect fill="none" height="6" style="stroke:#C82930;stroke-width:1.0;" width="6" x="22" y="108.2422"/><text fill="#000000" font-family="sans-serif" font-size="14" lengthAdjust="spacing" textLength="112" x="34" y="114.5889">ghost_ : Object*</text><rect fill="none" height="6" style="stroke:#C82930;stroke-width:1.0;" width="6" x="22" y="124.5391"/><text fill="#000000" font-family="sans-serif" font-size="14" lengthAdjust="spacing" textLength="194" x="34" y="130.8857">roadNetwork : RoadNetwork</text><ellipse cx="25" cy="143.8359" fill="none" rx="3" ry="3" style="stroke:#038048;stroke-width:1.0;"/><text fill="#000000" font-family="sans-serif" font-size="14" lengthAdjust="spacing" textLength="130" x="34" y="147.1826">mutex_ : SE_Mutex</text><rect fill="none" height="6" style="stroke:#C82930;stroke-width:1.0;" width="6" x="22" y="157.1328"/><text fill="#000000" font-family="sans-serif" font-size="14" lengthAdjust="spacing" textLength="250" x="34" y="163.4795">scenarioGateway : ScenarioGateway</text><ellipse cx="25" cy="176.4297" fill="none" rx="3" ry="3" style="stroke:#038048;stroke-width:1.0;"/><text fill="#000000" font-family="sans-serif" font-size="14" lengthAdjust="spacing" textLength="239" x="34" y="179.7764">scenarioReader : ScenarioReader*</text><ellipse cx="25" cy="192.7266" fill="none" rx="3" ry="3" style="stroke:#038048;stroke-width:1.0;"/><text fill="#000000" font-family="sans-serif" font-size="14" lengthAdjust="spacing" textLength="164" x="34" y="196.0732">storyBoard : StoryBoard</text><rect fill="none" height="6" style="stroke:#C82930;stroke-width:1.0;" width="6" x="22" y="206.0234"/><text fill="#000000" font-family="sans-serif" font-size="14" lengthAdjust="spacing" textLength="163" x="34" y="212.3701">sumotemplate : Vehicle</text><rect fill="none" height="6" style="stroke:#C82930;stroke-width:1.0;" width="6" x="22" y="222.3203"/><text fill="#000000" font-family="sans-serif" font-size="14" lengthAdjust="spacing" textLength="179" x="34" y="228.667">disable_controllers_ : bool</text><ellipse cx="25" cy="241.6172" fill="none" rx="3" ry="3" style="stroke:#038048;stroke-width:1.0;"/><text fill="#000000" font-family="sans-serif" font-size="14" lengthAdjust="spacing" textLength="98" x="34" y="244.9639">doOnce : bool</text><rect fill="none" height="6" style="stroke:#C82930;stroke-width:1.0;" width="6" x="22" y="254.9141"/><text fill="#000000" font-family="sans-serif" font-size="14" lengthAdjust="spacing" textLength="172" x="34" y="261.2607">simulationTime_ : double</text><ellipse cx="25" cy="274.2109" fill="none" rx="3" ry="3" style="stroke:#038048;stroke-width:1.0;"/><text fill="#000000" font-family="sans-serif" font-size="14" lengthAdjust="spacing" textLength="130" x="34" y="277.5576">trueTime_ : double</text><rect fill="none" height="6" style="stroke:#C82930;stroke-width:1.0;" width="6" x="22" y="287.5078"/><text fill="#000000" font-family="sans-serif" font-size="14" lengthAdjust="spacing" textLength="107" x="34" y="293.8545">init_status_ : int</text><rect fill="none" height="6" style="stroke:#C82930;stroke-width:1.0;" width="6" x="22" y="303.8047"/><text fill="#000000" font-family="sans-serif" font-size="14" lengthAdjust="spacing" textLength="278" x="34" y="310.1514">odrManager : roadmanager::OpenDrive*</text><rect fill="none" height="6" style="stroke:#C82930;stroke-width:1.0;" width="6" x="22" y="320.1016"/><text fill="#000000" font-family="sans-serif" font-size="14" lengthAdjust="spacing" textLength="492" x="34" y="326.4482">object_distance_map_ : std::unordered_map&lt;uint64_t, DistanceEntry&gt;</text><ellipse cx="25" cy="339.3984" fill="none" rx="3" ry="3" style="stroke:#038048;stroke-width:1.0;"/><text fill="#000000" font-family="sans-serif" font-size="14" lengthAdjust="spacing" textLength="288" x="34" y="342.7451">collision_pair_ : std::vector&lt;CollisionPair&gt;</text><ellipse cx="25" cy="355.6953" fill="none" rx="3" ry="3" style="stroke:#038048;stroke-width:1.0;"/><text fill="#000000" font-family="sans-serif" font-size="14" lengthAdjust="spacing" textLength="318" x="34" y="359.042">injected_actions_ : std::vector&lt;OSCAction*&gt;*</text><rect fill="none" height="6" style="stroke:#C82930;stroke-width:1.0;" width="6" x="22" y="368.9922"/><text fill="#000000" font-family="sans-serif" font-size="14" lengthAdjust="spacing" textLength="166" x="34" y="375.3389">frame_nr_ : unsigned int</text><line style="stroke:#181818;stroke-width:0.5;" x1="15" x2="1235" y1="382.6406" y2="382.6406"/><ellipse cx="25" cy="396.2891" fill="#84BE84" rx="3" ry="3" style="stroke:#038048;stroke-width:1.0;"/><text fill="#000000" font-family="sans-serif" font-size="14" lengthAdjust="spacing" textLength="451" x="34" y="399.6357">ScenarioEngine(std::string oscFilename, bool disable_controllers)</text><ellipse cx="25" cy="412.5859" fill="#84BE84" rx="3" ry="3" style="stroke:#038048;stroke-width:1.0;"/><text fill="#000000" font-family="sans-serif" font-size="14" lengthAdjust="spacing" textLength="545" x="34" y="415.9326">ScenarioEngine(const pugi::xml_document&amp; xml_doc, bool disable_controllers)</text><ellipse cx="25" cy="428.8828" fill="#84BE84" rx="3" ry="3" style="stroke:#038048;stroke-width:1.0;"/><text fill="#000000" font-family="sans-serif" font-size="14" lengthAdjust="spacing" textLength="130" x="34" y="432.2295">~ScenarioEngine()</text><ellipse cx="25" cy="445.1797" fill="#84BE84" rx="3" ry="3" style="stroke:#038048;stroke-width:1.0;"/><text fill="#000000" font-family="sans-serif" font-size="14" lengthAdjust="spacing" textLength="291" x="34" y="448.5264">getScenarioGateway() : ScenarioGateway*</text><ellipse cx="25" cy="461.4766" fill="#84BE84" rx="3" ry="3" style="stroke:#038048;stroke-width:1.0;"/><text fill="#000000" font-family="sans-serif" font-size="14" lengthAdjust="spacing" textLength="275" x="34" y="464.8232">GetScenarioReader() : ScenarioReader*</text><ellipse cx="25" cy="477.7734" fill="#84BE84" rx="3" ry="3" style="stroke:#038048;stroke-width:1.0;"/><text fill="#000000" font-family="sans-serif" font-size="14" lengthAdjust="spacing" textLength="293" x="34" y="481.1201">GetDisableControllersFlag() : bool {query}</text><ellipse cx="25" cy="494.0703" fill="#84BE84" rx="3" ry="3" style="stroke:#038048;stroke-width:1.0;"/><text fill="#000000" font-family="sans-serif" font-size="14" lengthAdjust="spacing" textLength="195" x="34" y="497.417">GetQuitFlag() : bool {query}</text><ellipse cx="25" cy="510.3672" fill="#84BE84" rx="3" ry="3" style="stroke:#038048;stroke-width:1.0;"/><text fill="#000000" font-family="sans-serif" font-size="14" lengthAdjust="spacing" textLength="223" x="34" y="513.7139">GetTrueTime() : double {query}</text><ellipse cx="25" cy="526.6641" fill="#84BE84" rx="3" ry="3" style="stroke:#038048;stroke-width:1.0;"/><text fill="#000000" font-family="sans-serif" font-size="14" lengthAdjust="spacing" textLength="260" x="34" y="530.0107">getSimulationTime() : double {query}</text><ellipse cx="25" cy="542.9609" fill="#84BE84" rx="3" ry="3" style="stroke:#038048;stroke-width:1.0;"/><text fill="#000000" font-family="sans-serif" font-size="14" lengthAdjust="spacing" textLength="227" x="34" y="546.3076">GetSimulationTimePtr() : double*</text><ellipse cx="25" cy="559.2578" fill="#84BE84" rx="3" ry="3" style="stroke:#038048;stroke-width:1.0;"/><text fill="#000000" font-family="sans-serif" font-size="14" lengthAdjust="spacing" textLength="188" x="34" y="562.6045">GetTrueTimePtr() : double*</text><ellipse cx="25" cy="575.5547" fill="#84BE84" rx="3" ry="3" style="stroke:#038048;stroke-width:1.0;"/><text fill="#000000" font-family="sans-serif" font-size="14" lengthAdjust="spacing" textLength="152" x="34" y="578.9014">DetectCollisions() : int</text><ellipse cx="25" cy="591.8516" fill="#84BE84" rx="3" ry="3" style="stroke:#038048;stroke-width:1.0;"/><text fill="#000000" font-family="sans-serif" font-size="14" lengthAdjust="spacing" textLength="1147" x="34" y="595.1982">GetDistance(Object* object_1, Object* object_2, roadmanager::RelativeDistanceType dist_type, const double tracking_limit, double* distance, double* timestamp) : int</text><ellipse cx="25" cy="608.1484" fill="#84BE84" rx="3" ry="3" style="stroke:#038048;stroke-width:1.0;"/><text fill="#000000" font-family="sans-serif" font-size="14" lengthAdjust="spacing" textLength="190" x="34" y="611.4951">GetInitStatus() : int {query}</text><ellipse cx="25" cy="624.4453" fill="#84BE84" rx="3" ry="3" style="stroke:#038048;stroke-width:1.0;"/><text fill="#000000" font-family="sans-serif" font-size="14" lengthAdjust="spacing" textLength="453" x="34" y="627.792">InitScenario(std::string oscFilename, bool disable_controllers) : int</text><ellipse cx="25" cy="640.7422" fill="#84BE84" rx="3" ry="3" style="stroke:#038048;stroke-width:1.0;"/><text fill="#000000" font-family="sans-serif" font-size="14" lengthAdjust="spacing" textLength="547" x="34" y="644.0889">InitScenario(const pugi::xml_document&amp; xml_doc, bool disable_controllers) : int</text><ellipse cx="25" cy="657.0391" fill="#84BE84" rx="3" ry="3" style="stroke:#038048;stroke-width:1.0;"/><text fill="#000000" font-family="sans-serif" font-size="14" lengthAdjust="spacing" textLength="1196" x="34" y="660.3857">UpdateDistance(Object* obj_1, Object* obj_2, roadmanager::RelativeDistanceType&amp; dist_type, const uint64_t&amp; key, const uint64_t&amp; rev_key, const double tracking_limit) : int</text><ellipse cx="25" cy="673.3359" fill="#84BE84" rx="3" ry="3" style="stroke:#038048;stroke-width:1.0;"/><text fill="#000000" font-family="sans-serif" font-size="14" lengthAdjust="spacing" textLength="305" x="34" y="676.6826">defaultController(Object* obj, double dt) : int</text><rect fill="#F24D5C" height="6" style="stroke:#C82930;stroke-width:1.0;" width="6" x="22" y="686.6328"/><text fill="#000000" font-family="sans-serif" font-size="14" lengthAdjust="spacing" textLength="139" x="34" y="692.9795">parseScenario() : int</text><ellipse cx="25" cy="705.9297" fill="#84BE84" rx="3" ry="3" style="stroke:#038048;stroke-width:1.0;"/><text fill="#000000" font-family="sans-serif" font-size="14" lengthAdjust="spacing" textLength="216" x="34" y="709.2764">step(double deltaSimTime) : int</text><ellipse cx="25" cy="722.2266" fill="#84BE84" rx="3" ry="3" style="stroke:#038048;stroke-width:1.0;"/><text fill="#000000" font-family="sans-serif" font-size="14" lengthAdjust="spacing" textLength="324" x="34" y="725.5732">getRoadManager() : roadmanager::OpenDrive*</text><ellipse cx="25" cy="738.5234" fill="#84BE84" rx="3" ry="3" style="stroke:#038048;stroke-width:1.0;"/><text fill="#000000" font-family="sans-serif" font-size="14" lengthAdjust="spacing" textLength="265" x="34" y="741.8701">getOdrFilename() : std::string {query}</text><ellipse cx="25" cy="754.8203" fill="#84BE84" rx="3" ry="3" style="stroke:#038048;stroke-width:1.0;"/><text fill="#000000" font-family="sans-serif" font-size="14" lengthAdjust="spacing" textLength="300" x="34" y="758.167">getScenarioFilename() : std::string {query}</text><ellipse cx="25" cy="771.1172" fill="#84BE84" rx="3" ry="3" style="stroke:#038048;stroke-width:1.0;"/><text fill="#000000" font-family="sans-serif" font-size="14" lengthAdjust="spacing" textLength="326" x="34" y="774.4639">getSceneGraphFilename() : std::string {query}</text><rect fill="#F24D5C" height="6" style="stroke:#C82930;stroke-width:1.0;" width="6" x="22" y="784.4141"/><text fill="#000000" font-family="sans-serif" font-size="14" lengthAdjust="spacing" textLength="322" x="34" y="790.7607">GenerateKey(int id1, int id2) : uint64_t {query}</text><ellipse cx="25" cy="803.7109" fill="#84BE84" rx="3" ry="3" style="stroke:#038048;stroke-width:1.0;"/><text fill="#000000" font-family="sans-serif" font-size="14" lengthAdjust="spacing" textLength="474" x="34" y="807.0576">CreateGhostTeleport(Object* obj1, Object* obj2, Event* event) : void</text><ellipse cx="25" cy="820.0078" fill="#84BE84" rx="3" ry="3" style="stroke:#038048;stroke-width:1.0;"/><text fill="#000000" font-family="sans-serif" font-size="14" lengthAdjust="spacing" textLength="180" x="34" y="823.3545">EraseCleanParams() : void</text><ellipse cx="25" cy="836.3047" fill="#84BE84" rx="3" ry="3" style="stroke:#038048;stroke-width:1.0;"/><text fill="#000000" font-family="sans-serif" font-size="14" lengthAdjust="spacing" textLength="191" x="34" y="839.6514">EraseCleanVariables() : void</text><ellipse cx="25" cy="852.6016" fill="#84BE84" rx="3" ry="3" style="stroke:#038048;stroke-width:1.0;"/><text fill="#000000" font-family="sans-serif" font-size="14" lengthAdjust="spacing" textLength="502" x="34" y="855.9482">GetIdxsFromIds(const int id_1, const int id_2, int&amp; idx_1, int&amp; idx_2) : void</text><ellipse cx="25" cy="868.8984" fill="#84BE84" rx="3" ry="3" style="stroke:#038048;stroke-width:1.0;"/><text fill="#000000" font-family="sans-serif" font-size="14" lengthAdjust="spacing" textLength="357" x="34" y="872.2451">InitScenarioCommon(bool disable_controllers) : void</text><ellipse cx="25" cy="885.1953" fill="#84BE84" rx="3" ry="3" style="stroke:#038048;stroke-width:1.0;"/><text fill="#000000" font-family="sans-serif" font-size="14" lengthAdjust="spacing" textLength="219" x="34" y="888.542">ParseGlobalDeclarations() : void</text><ellipse cx="25" cy="901.4922" fill="#84BE84" rx="3" ry="3" style="stroke:#038048;stroke-width:1.0;"/><text fill="#000000" font-family="sans-serif" font-size="14" lengthAdjust="spacing" textLength="734" x="34" y="904.8389">ReplaceObjectInTrigger(Trigger* trigger, Object* obj1, Object* obj2, double timeOffset, Event* event) : void</text><ellipse cx="25" cy="917.7891" fill="#84BE84" rx="3" ry="3" style="stroke:#038048;stroke-width:1.0;"/><text fill="#000000" font-family="sans-serif" font-size="14" lengthAdjust="spacing" textLength="200" x="34" y="921.1357">ResetEvents() : void {query}</text><ellipse cx="25" cy="934.0859" fill="#84BE84" rx="3" ry="3" style="stroke:#038048;stroke-width:1.0;"/><text fill="#000000" font-family="sans-serif" font-size="14" lengthAdjust="spacing" textLength="501" x="34" y="937.4326">SetInjectedActionsPtr(std::vector&lt;OSCAction*&gt;* injected_actions) : void</text><ellipse cx="25" cy="950.3828" fill="#84BE84" rx="3" ry="3" style="stroke:#038048;stroke-width:1.0;"/><text fill="#000000" font-family="sans-serif" font-size="14" lengthAdjust="spacing" textLength="336" x="34" y="953.7295">SetOSIReporter(OSIReporter* osi_reporter) : void</text><ellipse cx="25" cy="966.6797" fill="#84BE84" rx="3" ry="3" style="stroke:#038048;stroke-width:1.0;"/><text fill="#000000" font-family="sans-serif" font-size="14" lengthAdjust="spacing" textLength="261" x="34" y="970.0264">SetSimulationTime(double time) : void</text><ellipse cx="25" cy="982.9766" fill="#84BE84" rx="3" ry="3" style="stroke:#038048;stroke-width:1.0;"/><text fill="#000000" font-family="sans-serif" font-size="14" lengthAdjust="spacing" textLength="222" x="34" y="986.3232">SetTrueTime(double time) : void</text><ellipse cx="25" cy="999.2734" fill="#84BE84" rx="3" ry="3" style="stroke:#038048;stroke-width:1.0;"/><text fill="#000000" font-family="sans-serif" font-size="14" lengthAdjust="spacing" textLength="233" x="34" y="1002.6201">SetupGhost(Object* object) : void</text><ellipse cx="25" cy="1015.5703" fill="#84BE84" rx="3" ry="3" style="stroke:#038048;stroke-width:1.0;"/><text fill="#000000" font-family="sans-serif" font-size="14" lengthAdjust="spacing" textLength="182" x="34" y="1018.917">UpdateGhostMode() : void</text><ellipse cx="25" cy="1031.8672" fill="#84BE84" rx="3" ry="3" style="stroke:#038048;stroke-width:1.0;"/><text fill="#000000" font-family="sans-serif" font-size="14" lengthAdjust="spacing" textLength="260" x="34" y="1035.2139">prepareGroundTruth(double dt) : void</text><ellipse cx="25" cy="1048.1641" fill="#84BE84" rx="3" ry="3" style="stroke:#038048;stroke-width:1.0;"/><text fill="#000000" font-family="sans-serif" font-size="14" lengthAdjust="spacing" textLength="187" x="34" y="1051.5107">printSimulationTime() : void</text></g><!--class CallBack--><g id="elem_CallBack"><rect codeLine="72" fill="#F1F1F1" height="80.5938" id="CallBack" rx="2.5" ry="2.5" style="stroke:#181818;stroke-width:0.5;" width="234" x="1271" y="505.5"/><ellipse cx="1354.75" cy="521.5" fill="#ADD1B2" rx="11" ry="11" style="stroke:#181818;stroke-width:1.0;"/><path d="M1357.7188,527.1406 Q1357.1406,527.4375 1356.5,527.5781 Q1355.8594,527.7344 1355.1563,527.7344 Q1352.6563,527.7344 1351.3281,526.0938 Q1350.0156,524.4375 1350.0156,521.3125 Q1350.0156,518.1875 1351.3281,516.5313 Q1352.6563,514.875 1355.1563,514.875 Q1355.8594,514.875 1356.5,515.0313 Q1357.1563,515.1875 1357.7188,515.4844 L1357.7188,518.2031 Q1357.0938,517.625 1356.5,517.3594 Q1355.9063,517.0781 1355.2813,517.0781 Q1353.9375,517.0781 1353.25,518.1563 Q1352.5625,519.2188 1352.5625,521.3125 Q1352.5625,523.4063 1353.25,524.4844 Q1353.9375,525.5469 1355.2813,525.5469 Q1355.9063,525.5469 1356.5,525.2813 Q1357.0938,525 1357.7188,524.4219 L1357.7188,527.1406 Z " fill="#000000"/><text fill="#000000" font-family="sans-serif" font-size="14" lengthAdjust="spacing" textLength="58" x="1375.25" y="526.3467">CallBack</text><line style="stroke:#181818;stroke-width:0.5;" x1="1272" x2="1504" y1="537.5" y2="537.5"/><ellipse cx="1282" cy="551.1484" fill="none" rx="3" ry="3" style="stroke:#038048;stroke-width:1.0;"/><text fill="#000000" font-family="sans-serif" font-size="14" lengthAdjust="spacing" textLength="208" x="1291" y="554.4951">func : ParamDeclCallbackFunc</text><ellipse cx="1282" cy="567.4453" fill="none" rx="3" ry="3" style="stroke:#038048;stroke-width:1.0;"/><text fill="#000000" font-family="sans-serif" font-size="14" lengthAdjust="spacing" textLength="78" x="1291" y="570.792">data : void*</text><line style="stroke:#181818;stroke-width:0.5;" x1="1272" x2="1504" y1="578.0938" y2="578.0938"/></g><!--class CollisionPair--><g id="elem_CollisionPair"><rect codeLine="77" fill="#F1F1F1" height="80.5938" id="CollisionPair" rx="2.5" ry="2.5" style="stroke:#181818;stroke-width:0.5;" width="143" x="553.5" y="1119"/><ellipse cx="581.55" cy="1135" fill="#ADD1B2" rx="11" ry="11" style="stroke:#181818;stroke-width:1.0;"/><path d="M584.5188,1140.6406 Q583.9406,1140.9375 583.3,1141.0781 Q582.6594,1141.2344 581.9563,1141.2344 Q579.4563,1141.2344 578.1281,1139.5938 Q576.8156,1137.9375 576.8156,1134.8125 Q576.8156,1131.6875 578.1281,1130.0313 Q579.4563,1128.375 581.9563,1128.375 Q582.6594,1128.375 583.3,1128.5313 Q583.9563,1128.6875 584.5188,1128.9844 L584.5188,1131.7031 Q583.8938,1131.125 583.3,1130.8594 Q582.7063,1130.5781 582.0813,1130.5781 Q580.7375,1130.5781 580.05,1131.6563 Q579.3625,1132.7188 579.3625,1134.8125 Q579.3625,1136.9063 580.05,1137.9844 Q580.7375,1139.0469 582.0813,1139.0469 Q582.7063,1139.0469 583.3,1138.7813 Q583.8938,1138.5 584.5188,1137.9219 L584.5188,1140.6406 Z " fill="#000000"/><text fill="#000000" font-family="sans-serif" font-size="14" lengthAdjust="spacing" textLength="82" x="598.45" y="1139.8467">CollisionPair</text><line style="stroke:#181818;stroke-width:0.5;" x1="554.5" x2="695.5" y1="1151" y2="1151"/><ellipse cx="564.5" cy="1164.6484" fill="none" rx="3" ry="3" style="stroke:#038048;stroke-width:1.0;"/><text fill="#000000" font-family="sans-serif" font-size="14" lengthAdjust="spacing" textLength="117" x="573.5" y="1167.9951">object0 : Object*</text><ellipse cx="564.5" cy="1180.9453" fill="none" rx="3" ry="3" style="stroke:#038048;stroke-width:1.0;"/><text fill="#000000" font-family="sans-serif" font-size="14" lengthAdjust="spacing" textLength="117" x="573.5" y="1184.292">object1 : Object*</text><line style="stroke:#181818;stroke-width:0.5;" x1="554.5" x2="695.5" y1="1191.5938" y2="1191.5938"/></g><!--class ScenarioEngine::DistanceEntry--><g id="elem_ScenarioEngine::DistanceEntry"><rect codeLine="82" fill="#F1F1F1" height="80.5938" id="ScenarioEngine::DistanceEntry" rx="2.5" ry="2.5" style="stroke:#181818;stroke-width:0.5;" width="772" x="1540" y="505.5"/><ellipse cx="1814.75" cy="521.5" fill="#ADD1B2" rx="11" ry="11" style="stroke:#181818;stroke-width:1.0;"/><path d="M1817.7188,527.1406 Q1817.1406,527.4375 1816.5,527.5781 Q1815.8594,527.7344 1815.1563,527.7344 Q1812.6563,527.7344 1811.3281,526.0938 Q1810.0156,524.4375 1810.0156,521.3125 Q1810.0156,518.1875 1811.3281,516.5313 Q1812.6563,514.875 1815.1563,514.875 Q1815.8594,514.875 1816.5,515.0313 Q1817.1563,515.1875 1817.7188,515.4844 L1817.7188,518.2031 Q1817.0938,517.625 1816.5,517.3594 Q1815.9063,517.0781 1815.2813,517.0781 Q1813.9375,517.0781 1813.25,518.1563 Q1812.5625,519.2188 1812.5625,521.3125 Q1812.5625,523.4063 1813.25,524.4844 Q1813.9375,525.5469 1815.2813,525.5469 Q1815.9063,525.5469 1816.5,525.2813 Q1817.0938,525 1817.7188,524.4219 L1817.7188,527.1406 Z " fill="#000000"/><text fill="#000000" font-family="sans-serif" font-size="14" lengthAdjust="spacing" textLength="214" x="1835.25" y="526.3467">ScenarioEngine::DistanceEntry</text><line style="stroke:#181818;stroke-width:0.5;" x1="1541" x2="2311" y1="537.5" y2="537.5"/><ellipse cx="1551" cy="551.1484" fill="none" rx="3" ry="3" style="stroke:#038048;stroke-width:1.0;"/><text fill="#000000" font-family="sans-serif" font-size="14" lengthAdjust="spacing" textLength="154" x="1560" y="554.4951">next_update_ : double</text><line style="stroke:#181818;stroke-width:0.5;" x1="1541" x2="2311" y1="561.7969" y2="561.7969"/><ellipse cx="1551" cy="575.4453" fill="#84BE84" rx="3" ry="3" style="stroke:#038048;stroke-width:1.0;"/><text fill="#000000" font-family="sans-serif" font-size="14" lengthAdjust="spacing" textLength="746" x="1560" y="578.792">&gt;(roadmanager::RelativeDistanceType::ENUM_SIZE) : std::array&lt;DistanceMeasurement , static_cast&lt;size_t</text></g><!--class ScenarioEngine::DistanceMeasurement--><g id="elem_ScenarioEngine::DistanceMeasurement"><rect codeLine="87" fill="#F1F1F1" height="80.5938" id="ScenarioEngine::DistanceMeasurement" rx="2.5" ry="2.5" style="stroke:#181818;stroke-width:0.5;" width="307" x="1234.5" y="1119"/><ellipse cx="1249.5" cy="1135" fill="#ADD1B2" rx="11" ry="11" style="stroke:#181818;stroke-width:1.0;"/><path d="M1252.4688,1140.6406 Q1251.8906,1140.9375 1251.25,1141.0781 Q1250.6094,1141.2344 1249.9063,1141.2344 Q1247.4063,1141.2344 1246.0781,1139.5938 Q1244.7656,1137.9375 1244.7656,1134.8125 Q1244.7656,1131.6875 1246.0781,1130.0313 Q1247.4063,1128.375 1249.9063,1128.375 Q1250.6094,1128.375 1251.25,1128.5313 Q1251.9063,1128.6875 1252.4688,1128.9844 L1252.4688,1131.7031 Q1251.8438,1131.125 1251.25,1130.8594 Q1250.6563,1130.5781 1250.0313,1130.5781 Q1248.6875,1130.5781 1248,1131.6563 Q1247.3125,1132.7188 1247.3125,1134.8125 Q1247.3125,1136.9063 1248,1137.9844 Q1248.6875,1139.0469 1250.0313,1139.0469 Q1250.6563,1139.0469 1251.25,1138.7813 Q1251.8438,1138.5 1252.4688,1137.9219 L1252.4688,1140.6406 Z " fill="#000000"/><text fill="#000000" font-family="sans-serif" font-size="14" lengthAdjust="spacing" textLength="275" x="1263.5" y="1139.8467">ScenarioEngine::DistanceMeasurement</text><line style="stroke:#181818;stroke-width:0.5;" x1="1235.5" x2="1540.5" y1="1151" y2="1151"/><ellipse cx="1245.5" cy="1164.6484" fill="none" rx="3" ry="3" style="stroke:#038048;stroke-width:1.0;"/><text fill="#000000" font-family="sans-serif" font-size="14" lengthAdjust="spacing" textLength="127" x="1254.5" y="1167.9951">distance_ : double</text><ellipse cx="1245.5" cy="1180.9453" fill="none" rx="3" ry="3" style="stroke:#038048;stroke-width:1.0;"/><text fill="#000000" font-family="sans-serif" font-size="14" lengthAdjust="spacing" textLength="141" x="1254.5" y="1184.292">timestamp_ : double</text><line style="stroke:#181818;stroke-width:0.5;" x1="1235.5" x2="1540.5" y1="1191.5938" y2="1191.5938"/></g><!--reverse link ScenarioEngine to CollisionPair--><g id="link_ScenarioEngine_CollisionPair"><path codeLine="104" d="M625,1071.2228 C625,1094.4111 625,1102.6613 625,1118.7779 " fill="none" id="ScenarioEngine-backto-CollisionPair" style="stroke:#181818;stroke-width:1.0;"/><polygon fill="#181818" points="625,1059.2228,621,1065.2228,625,1071.2228,629,1065.2228,625,1059.2228" style="stroke:#181818;stroke-width:1.0;"/></g><!--SRC=[hLTDK-Cu43rFVeLFa0a9x51RUqXHLCs4a4fjGTY4cSDULC9k72ssv9LaXimK-zktMxPZoGaC-v5BfExNJwrMTqi-EOmMTtz0R4rqUDBhIPw3ANWCaOb1SYqKo5H8YBxttiKPDoPQrVBfLlxkA9JrZKt6OsEra6caJ7mfCY3UONIdL1Obml2x35YifDKgoq2Rztj8K6riL9If68-VyembAYvpaFOWgcS_eFkhmqV2KSmjprHged4qgOU4HLfX1HY6ycaz9dYwLiQIi0hHW6HQyUGQx5Ub7r2nR6T4b9SMdiXWDMLND2QB9f8pRk4htv0sb91b2hOZxR_VHP87HxCMkWIUW0wGbSW1JI1w0MELtdnIN2UatqwStsMkBEH5XckZyWkiHPn1xS555VP96_NBZAVE4tSit_yiGM-UQ_HlfR0lwKTxJf3LC39Fr4B6u0cGxrQNS2joS7o9Aj7SNv62AV8I7HTAlemRcG34jXZYiFKIeNJMPRwnsYCVTFpRexq0YwaqmNqAWnp6wOMqRLmjn_tswvIBbFjd7uPHHt8wZ2WNSovv2deyNW9vzGWDm-sc0AeEoooEXb5LK7KGhERn0zOdoqGkxB1nqE79k9LOt0RAyYBqSow5NLbko-q6_0DmsZhP_aKxQ5SAYFvBIsWfFnS99lI-E7U2_AO87-o6kCI5VlcPeLiFiDaLQdXadcBlWNZk9d3FoyosXUPxt1nJb7Wc8u51OyOT3ckb1TS6jh7qLZ0MYdx30vdbcE6Kl1u42uewtLKL2MSSH6PHWBpG61hN8bMYQ-IhE69T9Bh91yVgvqgde6lF_m4SPfeNwpSOZEgIQhAVvRnW3RgKIcEtX8IaPyqv3gCc2_32q9jpMZPkYfeLNEWjmIDIAtssBVaRL3gyaBGg4lEOsedfMYnMauzECpXtSPtXbZJcxg-mwLF1YGGJjXgSqkOQt_oTtMlSEfFEcr8QaKf8cbETQ42s6Lrojv11eRJraoki1Yo6wICMso02-gFr7fMWY-9eghc1IGOSjuRBLHrXL_a5Zu_gCjHJBqcUpALM-JmnTOrNcw9w3EQdRhi7E7nY7xpngK_ejuo9odCb-wzrXSRiXifZbgaxdbq0FdMqQ_6Xhql0op26AYfpUQj5IkLG_sElh0P1t7QYs1GyLjZY_jw0VJcmIq2rKxP- -7c-eZvSvL2LA8Okd9TIAEhccxyKKYrMywLB0kenxHZzDeBfUjQnwLoptjuwmEsD_JAaB5mgTcu-7rIrReUwKWa4PrEWXrnZoQjI9hYQNVU3tjZYC6tsl0ug_NElUUTEU9PzmfvSlN3lInaZoEKtfGTfxr1xYNBNfV4rMPCC0XQ_w2kgQbi_1Q_AMlZ15xOauKjsF0uwJqKguScoqeKdVB2SztzuXOt7q-lFLsmr_tswRP5SQxuvQr1Nm4sfWUxQQ1ZHpI9Y5dDZpupu1io-nLcVmxcyRRRXiwjvRlZYvnxoq-_aC9hBDMZXBF4ghGxHh4LHVRzKc8zfgY5rgZsOyClckFD1CnYDEjy-ny4XzhQUNAEZs4oLz_dqElNHBdM8E0vEjlV_yNd19-V_1W00]--></g></svg>