<?xml version="1.0" encoding="us-ascii" standalone="no"?><svg xmlns="http://www.w3.org/2000/svg" xmlns:xlink="http://www.w3.org/1999/xlink" contentStyleType="text/css" height="1915px" preserveAspectRatio="none" style="width:1978px;height:1915px;background:#FFFFFF;" version="1.1" viewBox="0 0 1978 1915" width="1978px" zoomAndPan="magnify"><defs/><g><!--cluster scenarioengine--><g id="cluster_scenarioengine"><path d="M8.5,6 L131.5,6 A3.75,3.75 0 0 1 134,8.5 L141,28.2969 L1684.5,28.2969 A2.5,2.5 0 0 1 1687,30.7969 L1687,1905.5 A2.5,2.5 0 0 1 1684.5,1908 L8.5,1908 A2.5,2.5 0 0 1 6,1905.5 L6,8.5 A2.5,2.5 0 0 1 8.5,6 " fill="none" style="stroke:#000000;stroke-width:1.5;"/><line style="stroke:#000000;stroke-width:1.5;" x1="6" x2="141" y1="28.2969" y2="28.2969"/><text fill="#000000" font-family="sans-serif" font-size="14" font-weight="bold" lengthAdjust="spacing" textLength="122" x="10" y="20.9951">scenarioengine</text></g><!--class ScenarioPlayer--><g id="elem_ScenarioPlayer"><rect codeLine="15" fill="#F1F1F1" height="1693.9844" id="ScenarioPlayer" rx="2.5" ry="2.5" style="stroke:#181818;stroke-width:0.5;" width="1083" x="14.5" y="33"/><ellipse cx="501.25" cy="49" fill="#ADD1B2" rx="11" ry="11" style="stroke:#181818;stroke-width:1.0;"/><path d="M504.2188,54.6406 Q503.6406,54.9375 503,55.0781 Q502.3594,55.2344 501.6563,55.2344 Q499.1563,55.2344 497.8281,53.5938 Q496.5156,51.9375 496.5156,48.8125 Q496.5156,45.6875 497.8281,44.0313 Q499.1563,42.375 501.6563,42.375 Q502.3594,42.375 503,42.5313 Q503.6563,42.6875 504.2188,42.9844 L504.2188,45.7031 Q503.5938,45.125 503,44.8594 Q502.4063,44.5781 501.7813,44.5781 Q500.4375,44.5781 499.75,45.6563 Q499.0625,46.7188 499.0625,48.8125 Q499.0625,50.9063 499.75,51.9844 Q500.4375,53.0469 501.7813,53.0469 Q502.4063,53.0469 503,52.7813 Q503.5938,52.5 504.2188,51.9219 L504.2188,54.6406 Z " fill="#000000"/><text fill="#000000" font-family="sans-serif" font-size="14" lengthAdjust="spacing" textLength="101" x="521.75" y="53.8467">ScenarioPlayer</text><line style="stroke:#181818;stroke-width:0.5;" x1="15.5" x2="1096.5" y1="65" y2="65"/><ellipse cx="25.5" cy="78.6484" fill="none" rx="3" ry="3" style="stroke:#038048;stroke-width:1.0;"/><text fill="#000000" font-family="sans-serif" font-size="14" lengthAdjust="spacing" textLength="163" x="34.5" y="81.9951">CSV_Log : CSV_Logger*</text><ellipse cx="25.5" cy="94.9453" fill="none" rx="3" ry="3" style="stroke:#038048;stroke-width:1.0;"/><text fill="#000000" font-family="sans-serif" font-size="14" lengthAdjust="spacing" textLength="185" x="34.5" y="98.292">osiReporter : OSIReporter*</text><rect fill="none" height="6" style="stroke:#C82930;stroke-width:1.0;" width="6" x="22.5" y="108.2422"/><text fill="#000000" font-family="sans-serif" font-size="14" lengthAdjust="spacing" textLength="132" x="34.5" y="114.5889">state_ : PlayerState</text><rect fill="none" height="6" style="stroke:#C82930;stroke-width:1.0;" width="6" x="22.5" y="124.5391"/><text fill="#000000" font-family="sans-serif" font-size="14" lengthAdjust="spacing" textLength="123" x="34.5" y="130.8857">mutex : SE_Mutex</text><ellipse cx="25.5" cy="143.8359" fill="none" rx="3" ry="3" style="stroke:#038048;stroke-width:1.0;"/><text fill="#000000" font-family="sans-serif" font-size="14" lengthAdjust="spacing" textLength="272" x="34.5" y="147.1826">player_init_semaphore : SE_Semaphore</text><ellipse cx="25.5" cy="160.1328" fill="none" rx="3" ry="3" style="stroke:#038048;stroke-width:1.0;"/><text fill="#000000" font-family="sans-serif" font-size="14" lengthAdjust="spacing" textLength="275" x="34.5" y="163.4795">viewer_init_semaphore : SE_Semaphore</text><rect fill="none" height="6" style="stroke:#C82930;stroke-width:1.0;" width="6" x="22.5" y="173.4297"/><text fill="#000000" font-family="sans-serif" font-size="14" lengthAdjust="spacing" textLength="132" x="34.5" y="179.7764">thread : SE_Thread</text><ellipse cx="25.5" cy="192.7266" fill="none" rx="3" ry="3" style="stroke:#038048;stroke-width:1.0;"/><text fill="#000000" font-family="sans-serif" font-size="14" lengthAdjust="spacing" textLength="235" x="34.5" y="196.0732">scenarioEngine : ScenarioEngine*</text><ellipse cx="25.5" cy="209.0234" fill="none" rx="3" ry="3" style="stroke:#038048;stroke-width:1.0;"/><text fill="#000000" font-family="sans-serif" font-size="14" lengthAdjust="spacing" textLength="257" x="34.5" y="212.3701">scenarioGateway : ScenarioGateway*</text><ellipse cx="25.5" cy="225.3203" fill="none" rx="3" ry="3" style="stroke:#038048;stroke-width:1.0;"/><text fill="#000000" font-family="sans-serif" font-size="14" lengthAdjust="spacing" textLength="182" x="34.5" y="228.667">viewerState_ : ViewerState</text><rect fill="none" height="6" style="stroke:#C82930;stroke-width:1.0;" width="6" x="22.5" y="238.6172"/><text fill="#000000" font-family="sans-serif" font-size="14" lengthAdjust="spacing" textLength="179" x="34.5" y="244.9639">disable_controllers_ : bool</text><rect fill="none" height="6" style="stroke:#C82930;stroke-width:1.0;" width="6" x="22.5" y="254.9141"/><text fill="#000000" font-family="sans-serif" font-size="14" lengthAdjust="spacing" textLength="139" x="34.5" y="261.2607">launch_server : bool</text><rect fill="none" height="6" style="stroke:#C82930;stroke-width:1.0;" width="6" x="22.5" y="271.2109"/><text fill="#000000" font-family="sans-serif" font-size="14" lengthAdjust="spacing" textLength="135" x="34.5" y="277.5576">osi_updated_ : bool</text><rect fill="none" height="6" style="stroke:#C82930;stroke-width:1.0;" width="6" x="22.5" y="287.5078"/><text fill="#000000" font-family="sans-serif" font-size="14" lengthAdjust="spacing" textLength="130" x="34.5" y="293.8545">quit_request : bool</text><rect fill="none" height="6" style="stroke:#C82930;stroke-width:1.0;" width="6" x="22.5" y="303.8047"/><text fill="#000000" font-family="sans-serif" font-size="14" lengthAdjust="spacing" textLength="96" x="34.5" y="310.1514">threads : bool</text><rect fill="none" height="6" style="stroke:#C82930;stroke-width:1.0;" width="6" x="22.5" y="320.1016"/><text fill="#000000" font-family="sans-serif" font-size="14" lengthAdjust="spacing" textLength="93" x="34.5" y="326.4482">argv_ : char**</text><ellipse cx="25.5" cy="339.3984" fill="none" rx="3" ry="3" style="stroke:#038048;stroke-width:1.0;"/><text fill="#000000" font-family="sans-serif" font-size="14" lengthAdjust="spacing" textLength="193" x="34.5" y="342.7451">maxStepSize : const double</text><ellipse cx="25.5" cy="355.6953" fill="none" rx="3" ry="3" style="stroke:#038048;stroke-width:1.0;"/><text fill="#000000" font-family="sans-serif" font-size="14" lengthAdjust="spacing" textLength="190" x="34.5" y="359.042">minStepSize : const double</text><rect fill="none" height="6" style="stroke:#C82930;stroke-width:1.0;" width="6" x="22.5" y="368.9922"/><text fill="#000000" font-family="sans-serif" font-size="14" lengthAdjust="spacing" textLength="168" x="34.5" y="375.3389">fixed_timestep_ : double</text><rect fill="none" height="6" style="stroke:#C82930;stroke-width:1.0;" width="6" x="22.5" y="385.2891"/><text fill="#000000" font-family="sans-serif" font-size="14" lengthAdjust="spacing" textLength="106" x="34.5" y="391.6357">trail_dt : double</text><rect fill="none" height="6" style="stroke:#C82930;stroke-width:1.0;" width="6" x="22.5" y="401.5859"/><text fill="#000000" font-family="sans-serif" font-size="14" lengthAdjust="spacing" textLength="67" x="34.5" y="407.9326">argc_ : int</text><rect fill="none" height="6" style="stroke:#C82930;stroke-width:1.0;" width="6" x="22.5" y="417.8828"/><text fill="#000000" font-family="sans-serif" font-size="14" lengthAdjust="spacing" textLength="137" x="34.5" y="424.2295">frame_counter_ : int</text><ellipse cx="25.5" cy="437.1797" fill="none" rx="3" ry="3" style="stroke:#038048;stroke-width:1.0;"/><text fill="#000000" font-family="sans-serif" font-size="14" lengthAdjust="spacing" textLength="286" x="34.5" y="440.5264">odr_manager : roadmanager::OpenDrive*</text><ellipse cx="25.5" cy="453.4766" fill="none" rx="3" ry="3" style="stroke:#038048;stroke-width:1.0;"/><text fill="#000000" font-family="sans-serif" font-size="14" lengthAdjust="spacing" textLength="154" x="34.5" y="456.8232">exe_path_ : std::string</text><rect fill="none" height="6" style="stroke:#C82930;stroke-width:1.0;" width="6" x="22.5" y="466.7734"/><text fill="#000000" font-family="sans-serif" font-size="14" lengthAdjust="spacing" textLength="204" x="34.5" y="473.1201">osi_receiver_addr : std::string</text><rect fill="none" height="6" style="stroke:#C82930;stroke-width:1.0;" width="6" x="22.5" y="483.0703"/><text fill="#000000" font-family="sans-serif" font-size="14" lengthAdjust="spacing" textLength="149" x="34.5" y="489.417">titleString : std::string</text><ellipse cx="25.5" cy="502.3672" fill="none" rx="3" ry="3" style="stroke:#038048;stroke-width:1.0;"/><text fill="#000000" font-family="sans-serif" font-size="14" lengthAdjust="spacing" textLength="326" x="34.5" y="505.7139">player_server_ : std::unique_ptr&lt;PlayerServer&gt;</text><ellipse cx="25.5" cy="518.6641" fill="none" rx="3" ry="3" style="stroke:#038048;stroke-width:1.0;"/><text fill="#000000" font-family="sans-serif" font-size="14" lengthAdjust="spacing" textLength="270" x="34.5" y="522.0107">objCallback : std::vector&lt;ObjCallback&gt;</text><ellipse cx="25.5" cy="534.9609" fill="none" rx="3" ry="3" style="stroke:#038048;stroke-width:1.0;"/><text fill="#000000" font-family="sans-serif" font-size="14" lengthAdjust="spacing" textLength="261" x="34.5" y="538.3076">sensor : std::vector&lt;ObjectSensor*&gt;</text><ellipse cx="25.5" cy="551.2578" fill="none" rx="3" ry="3" style="stroke:#038048;stroke-width:1.0;"/><text fill="#000000" font-family="sans-serif" font-size="14" lengthAdjust="spacing" textLength="416" x="34.5" y="554.6045">sensorFrustum : std::vector&lt;viewer::SensorViewFrustum*&gt;</text><ellipse cx="25.5" cy="567.5547" fill="none" rx="3" ry="3" style="stroke:#038048;stroke-width:1.0;"/><text fill="#000000" font-family="sans-serif" font-size="14" lengthAdjust="spacing" textLength="354" x="34.5" y="570.9014">OSISensorDetection : viewer::OSISensorDetection*</text><ellipse cx="25.5" cy="583.8516" fill="none" rx="3" ry="3" style="stroke:#038048;stroke-width:1.0;"/><text fill="#000000" font-family="sans-serif" font-size="14" lengthAdjust="spacing" textLength="171" x="34.5" y="587.1982">viewer_ : viewer::Viewer*</text><ellipse cx="25.5" cy="600.1484" fill="none" rx="3" ry="3" style="stroke:#038048;stroke-width:1.0;"/><text fill="#000000" font-family="sans-serif" font-size="14" lengthAdjust="spacing" textLength="129" x="34.5" y="603.4951">osiReporter : void*</text><ellipse cx="25.5" cy="616.4453" fill="none" rx="3" ry="3" style="stroke:#038048;stroke-width:1.0;"/><text fill="#000000" font-family="sans-serif" font-size="14" lengthAdjust="spacing" textLength="99" x="34.5" y="619.792">viewer_ : void*</text><line style="stroke:#181818;stroke-width:0.5;" x1="15.5" x2="1096.5" y1="627.0938" y2="627.0938"/><ellipse cx="25.5" cy="640.7422" fill="#84BE84" rx="3" ry="3" style="stroke:#038048;stroke-width:1.0;"/><text fill="#000000" font-family="sans-serif" font-size="14" lengthAdjust="spacing" textLength="240" x="34.5" y="644.0889">ScenarioPlayer(int argc, char* argv)</text><ellipse cx="25.5" cy="657.0391" fill="#84BE84" rx="3" ry="3" style="stroke:#038048;stroke-width:1.0;"/><text fill="#000000" font-family="sans-serif" font-size="14" lengthAdjust="spacing" textLength="123" x="34.5" y="660.3857">~ScenarioPlayer()</text><ellipse cx="25.5" cy="673.3359" fill="#84BE84" rx="3" ry="3" style="stroke:#038048;stroke-width:1.0;"/><text fill="#000000" font-family="sans-serif" font-size="14" lengthAdjust="spacing" textLength="304" x="34.5" y="676.6826">FetchCapturedImagePtr() : OffScreenImage*</text><ellipse cx="25.5" cy="689.6328" fill="#84BE84" rx="3" ry="3" style="stroke:#038048;stroke-width:1.0;"/><text fill="#000000" font-family="sans-serif" font-size="14" lengthAdjust="spacing" textLength="177" x="34.5" y="692.9795">IsPaused() : bool {query}</text><ellipse cx="25.5" cy="705.9297" fill="#84BE84" rx="3" ry="3" style="stroke:#038048;stroke-width:1.0;"/><text fill="#000000" font-family="sans-serif" font-size="14" lengthAdjust="spacing" textLength="230" x="34.5" y="709.2764">IsQuitRequested() : bool {query}</text><ellipse cx="25.5" cy="722.2266" fill="#84BE84" rx="3" ry="3" style="stroke:#038048;stroke-width:1.0;"/><text fill="#000000" font-family="sans-serif" font-size="14" lengthAdjust="spacing" textLength="605" x="34.5" y="725.5732">GetParameterName(int index, OSCParameterDeclarations::ParameterType* type) : char*</text><ellipse cx="25.5" cy="738.5234" fill="#84BE84" rx="3" ry="3" style="stroke:#038048;stroke-width:1.0;"/><text fill="#000000" font-family="sans-serif" font-size="14" lengthAdjust="spacing" textLength="365" x="34.5" y="741.8701">GetPropertyName(int index, int propertyIndex) : char*</text><ellipse cx="25.5" cy="754.8203" fill="#84BE84" rx="3" ry="3" style="stroke:#038048;stroke-width:1.0;"/><text fill="#000000" font-family="sans-serif" font-size="14" lengthAdjust="spacing" textLength="363" x="34.5" y="758.167">GetPropertyValue(int index, int propertyIndex) : char*</text><ellipse cx="25.5" cy="771.1172" fill="#84BE84" rx="3" ry="3" style="stroke:#038048;stroke-width:1.0;"/><text fill="#000000" font-family="sans-serif" font-size="14" lengthAdjust="spacing" textLength="588" x="34.5" y="774.4639">GetVariableName(int index, OSCParameterDeclarations::ParameterType* type) : char*</text><ellipse cx="25.5" cy="787.4141" fill="#84BE84" rx="3" ry="3" style="stroke:#038048;stroke-width:1.0;"/><text fill="#000000" font-family="sans-serif" font-size="14" lengthAdjust="spacing" textLength="258" x="34.5" y="790.7607">GetFixedTimestep() : double {query}</text><ellipse cx="25.5" cy="803.7109" fill="#84BE84" rx="3" ry="3" style="stroke:#038048;stroke-width:1.0;"/><text fill="#000000" font-family="sans-serif" font-size="14" lengthAdjust="spacing" textLength="613" x="34.5" y="807.0576">AddCustomCamera(double x, double y, double z, double h, double p, bool fixed_pos) : int</text><ellipse cx="25.5" cy="820.0078" fill="#84BE84" rx="3" ry="3" style="stroke:#038048;stroke-width:1.0;"/><text fill="#000000" font-family="sans-serif" font-size="14" lengthAdjust="spacing" textLength="475" x="34.5" y="823.3545">AddCustomCamera(double x, double y, double z, bool fixed_pos) : int</text><ellipse cx="25.5" cy="836.3047" fill="#84BE84" rx="3" ry="3" style="stroke:#038048;stroke-width:1.0;"/><text fill="#000000" font-family="sans-serif" font-size="14" lengthAdjust="spacing" textLength="510" x="34.5" y="839.6514">AddCustomFixedTopCamera(double x, double y, double z, double rot) : int</text><ellipse cx="25.5" cy="852.6016" fill="#84BE84" rx="3" ry="3" style="stroke:#038048;stroke-width:1.0;"/><text fill="#000000" font-family="sans-serif" font-size="14" lengthAdjust="spacing" textLength="515" x="34.5" y="855.9482">AddCustomLightSource(double x, double y, double z, double intensity) : int</text><ellipse cx="25.5" cy="868.8984" fill="#84BE84" rx="3" ry="3" style="stroke:#038048;stroke-width:1.0;"/><text fill="#000000" font-family="sans-serif" font-size="14" lengthAdjust="spacing" textLength="1057" x="34.5" y="872.2451">AddObjectSensor(Object* obj, double pos_x, double pos_y, double pos_z, double heading, double near_dist, double far_dist, double fovH, int maxObj) : int</text><ellipse cx="25.5" cy="885.1953" fill="#84BE84" rx="3" ry="3" style="stroke:#038048;stroke-width:1.0;"/><text fill="#000000" font-family="sans-serif" font-size="14" lengthAdjust="spacing" textLength="207" x="34.5" y="888.542">Frame(bool server_mode) : int</text><ellipse cx="25.5" cy="901.4922" fill="#84BE84" rx="3" ry="3" style="stroke:#038048;stroke-width:1.0;"/><text fill="#000000" font-family="sans-serif" font-size="14" lengthAdjust="spacing" textLength="343" x="34.5" y="904.8389">Frame(double timestep_s, bool server_mode) : int</text><ellipse cx="25.5" cy="917.7891" fill="#84BE84" rx="3" ry="3" style="stroke:#038048;stroke-width:1.0;"/><text fill="#000000" font-family="sans-serif" font-size="14" lengthAdjust="spacing" textLength="182" x="34.5" y="921.1357">GetCounter() : int {query}</text><ellipse cx="25.5" cy="934.0859" fill="#84BE84" rx="3" ry="3" style="stroke:#038048;stroke-width:1.0;"/><text fill="#000000" font-family="sans-serif" font-size="14" lengthAdjust="spacing" textLength="298" x="34.5" y="937.4326">GetNumberOfObjectSensors() : int {query}</text><ellipse cx="25.5" cy="950.3828" fill="#84BE84" rx="3" ry="3" style="stroke:#038048;stroke-width:1.0;"/><text fill="#000000" font-family="sans-serif" font-size="14" lengthAdjust="spacing" textLength="214" x="34.5" y="953.7295">GetNumberOfParameters() : int</text><ellipse cx="25.5" cy="966.6797" fill="#84BE84" rx="3" ry="3" style="stroke:#038048;stroke-width:1.0;"/><text fill="#000000" font-family="sans-serif" font-size="14" lengthAdjust="spacing" textLength="264" x="34.5" y="970.0264">GetNumberOfProperties(int index) : int</text><ellipse cx="25.5" cy="982.9766" fill="#84BE84" rx="3" ry="3" style="stroke:#038048;stroke-width:1.0;"/><text fill="#000000" font-family="sans-serif" font-size="14" lengthAdjust="spacing" textLength="498" x="34.5" y="986.3232">GetNumberOfSensorsAttachedToObject(const Object* obj) : int {query}</text><ellipse cx="25.5" cy="999.2734" fill="#84BE84" rx="3" ry="3" style="stroke:#038048;stroke-width:1.0;"/><text fill="#000000" font-family="sans-serif" font-size="14" lengthAdjust="spacing" textLength="197" x="34.5" y="1002.6201">GetNumberOfVariables() : int</text><ellipse cx="25.5" cy="1015.5703" fill="#84BE84" rx="3" ry="3" style="stroke:#038048;stroke-width:1.0;"/><text fill="#000000" font-family="sans-serif" font-size="14" lengthAdjust="spacing" textLength="380" x="34.5" y="1018.917">GetParameterValue(const char* name, void* value) : int</text><ellipse cx="25.5" cy="1031.8672" fill="#84BE84" rx="3" ry="3" style="stroke:#038048;stroke-width:1.0;"/><text fill="#000000" font-family="sans-serif" font-size="14" lengthAdjust="spacing" textLength="418" x="34.5" y="1035.2139">GetParameterValueBool(const char* name, bool&amp; value) : int</text><ellipse cx="25.5" cy="1048.1641" fill="#84BE84" rx="3" ry="3" style="stroke:#038048;stroke-width:1.0;"/><text fill="#000000" font-family="sans-serif" font-size="14" lengthAdjust="spacing" textLength="455" x="34.5" y="1051.5107">GetParameterValueDouble(const char* name, double&amp; value) : int</text><ellipse cx="25.5" cy="1064.4609" fill="#84BE84" rx="3" ry="3" style="stroke:#038048;stroke-width:1.0;"/><text fill="#000000" font-family="sans-serif" font-size="14" lengthAdjust="spacing" textLength="391" x="34.5" y="1067.8076">GetParameterValueInt(const char* name, int&amp; value) : int</text><ellipse cx="25.5" cy="1080.7578" fill="#84BE84" rx="3" ry="3" style="stroke:#038048;stroke-width:1.0;"/><text fill="#000000" font-family="sans-serif" font-size="14" lengthAdjust="spacing" textLength="477" x="34.5" y="1084.1045">GetParameterValueString(const char* name, const char*&amp; value) : int</text><ellipse cx="25.5" cy="1097.0547" fill="#84BE84" rx="3" ry="3" style="stroke:#038048;stroke-width:1.0;"/><text fill="#000000" font-family="sans-serif" font-size="14" lengthAdjust="spacing" textLength="162" x="34.5" y="1100.4014">GetState() : int {query}</text><ellipse cx="25.5" cy="1113.3516" fill="#84BE84" rx="3" ry="3" style="stroke:#038048;stroke-width:1.0;"/><text fill="#000000" font-family="sans-serif" font-size="14" lengthAdjust="spacing" textLength="363" x="34.5" y="1116.6982">GetVariableValue(const char* name, void* value) : int</text><ellipse cx="25.5" cy="1129.6484" fill="#84BE84" rx="3" ry="3" style="stroke:#038048;stroke-width:1.0;"/><text fill="#000000" font-family="sans-serif" font-size="14" lengthAdjust="spacing" textLength="401" x="34.5" y="1132.9951">GetVariableValueBool(const char* name, bool&amp; value) : int</text><ellipse cx="25.5" cy="1145.9453" fill="#84BE84" rx="3" ry="3" style="stroke:#038048;stroke-width:1.0;"/><text fill="#000000" font-family="sans-serif" font-size="14" lengthAdjust="spacing" textLength="438" x="34.5" y="1149.292">GetVariableValueDouble(const char* name, double&amp; value) : int</text><ellipse cx="25.5" cy="1162.2422" fill="#84BE84" rx="3" ry="3" style="stroke:#038048;stroke-width:1.0;"/><text fill="#000000" font-family="sans-serif" font-size="14" lengthAdjust="spacing" textLength="374" x="34.5" y="1165.5889">GetVariableValueInt(const char* name, int&amp; value) : int</text><ellipse cx="25.5" cy="1178.5391" fill="#84BE84" rx="3" ry="3" style="stroke:#038048;stroke-width:1.0;"/><text fill="#000000" font-family="sans-serif" font-size="14" lengthAdjust="spacing" textLength="460" x="34.5" y="1181.8857">GetVariableValueString(const char* name, const char*&amp; value) : int</text><ellipse cx="25.5" cy="1194.8359" fill="#84BE84" rx="3" ry="3" style="stroke:#038048;stroke-width:1.0;"/><text fill="#000000" font-family="sans-serif" font-size="14" lengthAdjust="spacing" textLength="60" x="34.5" y="1198.1826">Init() : int</text><ellipse cx="25.5" cy="1211.1328" fill="#84BE84" rx="3" ry="3" style="stroke:#038048;stroke-width:1.0;"/><text fill="#000000" font-family="sans-serif" font-size="14" lengthAdjust="spacing" textLength="106" x="34.5" y="1214.4795">InitViewer() : int</text><ellipse cx="25.5" cy="1227.4297" fill="#84BE84" rx="3" ry="3" style="stroke:#038048;stroke-width:1.0;"/><text fill="#000000" font-family="sans-serif" font-size="14" lengthAdjust="spacing" textLength="356" x="34.5" y="1230.7764">LoadParameterDistribution(std::string filename) : int</text><ellipse cx="25.5" cy="1243.7266" fill="#84BE84" rx="3" ry="3" style="stroke:#038048;stroke-width:1.0;"/><text fill="#000000" font-family="sans-serif" font-size="14" lengthAdjust="spacing" textLength="265" x="34.5" y="1247.0732">SaveImagesToFile(int nrOfFrames) : int</text><ellipse cx="25.5" cy="1260.0234" fill="#84BE84" rx="3" ry="3" style="stroke:#038048;stroke-width:1.0;"/><text fill="#000000" font-family="sans-serif" font-size="14" lengthAdjust="spacing" textLength="241" x="34.5" y="1263.3701">SaveImagesToRAM(bool state) : int</text><ellipse cx="25.5" cy="1276.3203" fill="#84BE84" rx="3" ry="3" style="stroke:#038048;stroke-width:1.0;"/><text fill="#000000" font-family="sans-serif" font-size="14" lengthAdjust="spacing" textLength="376" x="34.5" y="1279.667">ScenarioFrame(double timestep_s, bool keyframe) : int</text><ellipse cx="25.5" cy="1292.6172" fill="#84BE84" rx="3" ry="3" style="stroke:#038048;stroke-width:1.0;"/><text fill="#000000" font-family="sans-serif" font-size="14" lengthAdjust="spacing" textLength="421" x="34.5" y="1295.9639">SetParameterValue(const char* name, const void* value) : int</text><ellipse cx="25.5" cy="1308.9141" fill="#84BE84" rx="3" ry="3" style="stroke:#038048;stroke-width:1.0;"/><text fill="#000000" font-family="sans-serif" font-size="14" lengthAdjust="spacing" textLength="360" x="34.5" y="1312.2607">SetParameterValue(const char* name, int value) : int</text><ellipse cx="25.5" cy="1325.2109" fill="#84BE84" rx="3" ry="3" style="stroke:#038048;stroke-width:1.0;"/><text fill="#000000" font-family="sans-serif" font-size="14" lengthAdjust="spacing" textLength="391" x="34.5" y="1328.5576">SetParameterValue(const char* name, double value) : int</text><ellipse cx="25.5" cy="1341.5078" fill="#84BE84" rx="3" ry="3" style="stroke:#038048;stroke-width:1.0;"/><text fill="#000000" font-family="sans-serif" font-size="14" lengthAdjust="spacing" textLength="423" x="34.5" y="1344.8545">SetParameterValue(const char* name, const char* value) : int</text><ellipse cx="25.5" cy="1357.8047" fill="#84BE84" rx="3" ry="3" style="stroke:#038048;stroke-width:1.0;"/><text fill="#000000" font-family="sans-serif" font-size="14" lengthAdjust="spacing" textLength="373" x="34.5" y="1361.1514">SetParameterValue(const char* name, bool value) : int</text><ellipse cx="25.5" cy="1374.1016" fill="#84BE84" rx="3" ry="3" style="stroke:#038048;stroke-width:1.0;"/><text fill="#000000" font-family="sans-serif" font-size="14" lengthAdjust="spacing" textLength="404" x="34.5" y="1377.4482">SetVariableValue(const char* name, const void* value) : int</text><ellipse cx="25.5" cy="1390.3984" fill="#84BE84" rx="3" ry="3" style="stroke:#038048;stroke-width:1.0;"/><text fill="#000000" font-family="sans-serif" font-size="14" lengthAdjust="spacing" textLength="343" x="34.5" y="1393.7451">SetVariableValue(const char* name, int value) : int</text><ellipse cx="25.5" cy="1406.6953" fill="#84BE84" rx="3" ry="3" style="stroke:#038048;stroke-width:1.0;"/><text fill="#000000" font-family="sans-serif" font-size="14" lengthAdjust="spacing" textLength="374" x="34.5" y="1410.042">SetVariableValue(const char* name, double value) : int</text><ellipse cx="25.5" cy="1422.9922" fill="#84BE84" rx="3" ry="3" style="stroke:#038048;stroke-width:1.0;"/><text fill="#000000" font-family="sans-serif" font-size="14" lengthAdjust="spacing" textLength="406" x="34.5" y="1426.3389">SetVariableValue(const char* name, const char* value) : int</text><ellipse cx="25.5" cy="1439.2891" fill="#84BE84" rx="3" ry="3" style="stroke:#038048;stroke-width:1.0;"/><text fill="#000000" font-family="sans-serif" font-size="14" lengthAdjust="spacing" textLength="356" x="34.5" y="1442.6357">SetVariableValue(const char* name, bool value) : int</text><ellipse cx="25.5" cy="1455.5859" fill="#84BE84" rx="3" ry="3" style="stroke:#038048;stroke-width:1.0;"/><text fill="#000000" font-family="sans-serif" font-size="14" lengthAdjust="spacing" textLength="322" x="34.5" y="1458.9326">GetODRManager() : roadmanager::OpenDrive*</text><ellipse cx="25.5" cy="1471.8828" fill="#84BE84" rx="3" ry="3" style="stroke:#038048;stroke-width:1.0;"/><text fill="#000000" font-family="sans-serif" font-size="14" lengthAdjust="spacing" textLength="277" x="34.5" y="1475.2295">AddOSIDetection(int object_index) : void</text><ellipse cx="25.5" cy="1488.1797" fill="#84BE84" rx="3" ry="3" style="stroke:#038048;stroke-width:1.0;"/><text fill="#000000" font-family="sans-serif" font-size="14" lengthAdjust="spacing" textLength="136" x="34.5" y="1491.5264">CloseViewer() : void</text><ellipse cx="25.5" cy="1504.4766" fill="#84BE84" rx="3" ry="3" style="stroke:#038048;stroke-width:1.0;"/><text fill="#000000" font-family="sans-serif" font-size="14" lengthAdjust="spacing" textLength="86" x="34.5" y="1507.8232">Draw() : void</text><ellipse cx="25.5" cy="1520.7734" fill="#84BE84" rx="3" ry="3" style="stroke:#038048;stroke-width:1.0;"/><text fill="#000000" font-family="sans-serif" font-size="14" lengthAdjust="spacing" textLength="218" x="34.5" y="1524.1201">InitControllersPostPlayer() : void</text><ellipse cx="25.5" cy="1537.0703" fill="#84BE84" rx="3" ry="3" style="stroke:#038048;stroke-width:1.0;"/><text fill="#000000" font-family="sans-serif" font-size="14" lengthAdjust="spacing" textLength="421" x="34.5" y="1540.417">InitVehicleModel(Object* obj, viewer::CarModel* model) : void</text><ellipse cx="25.5" cy="1553.3672" fill="#84BE84" rx="3" ry="3" style="stroke:#038048;stroke-width:1.0;"/><text fill="#000000" font-family="sans-serif" font-size="14" lengthAdjust="spacing" textLength="126" x="34.5" y="1556.7139">PrintUsage() : void</text><ellipse cx="25.5" cy="1569.6641" fill="#84BE84" rx="3" ry="3" style="stroke:#038048;stroke-width:1.0;"/><text fill="#000000" font-family="sans-serif" font-size="14" lengthAdjust="spacing" textLength="455" x="34.5" y="1573.0107">RegisterObjCallback(int id, ObjCallbackFunc func, void* data) : void</text><ellipse cx="25.5" cy="1585.9609" fill="#84BE84" rx="3" ry="3" style="stroke:#038048;stroke-width:1.0;"/><text fill="#000000" font-family="sans-serif" font-size="14" lengthAdjust="spacing" textLength="185" x="34.5" y="1589.3076">ScenarioPostFrame() : void</text><ellipse cx="25.5" cy="1602.2578" fill="#84BE84" rx="3" ry="3" style="stroke:#038048;stroke-width:1.0;"/><text fill="#000000" font-family="sans-serif" font-size="14" lengthAdjust="spacing" textLength="288" x="34.5" y="1605.6045">SetFixedTimestep(double timestep) : void</text><ellipse cx="25.5" cy="1618.5547" fill="#84BE84" rx="3" ry="3" style="stroke:#038048;stroke-width:1.0;"/><text fill="#000000" font-family="sans-serif" font-size="14" lengthAdjust="spacing" textLength="384" x="34.5" y="1621.9014">SetOSIFileStatus(bool is_on, const char* filename) : void</text><ellipse cx="25.5" cy="1634.8516" fill="#84BE84" rx="3" ry="3" style="stroke:#038048;stroke-width:1.0;"/><text fill="#000000" font-family="sans-serif" font-size="14" lengthAdjust="spacing" textLength="221" x="34.5" y="1638.1982">SetQuitRequest(bool quit) : void</text><ellipse cx="25.5" cy="1651.1484" fill="#84BE84" rx="3" ry="3" style="stroke:#038048;stroke-width:1.0;"/><text fill="#000000" font-family="sans-serif" font-size="14" lengthAdjust="spacing" textLength="226" x="34.5" y="1654.4951">SetState(PlayerState state) : void</text><ellipse cx="25.5" cy="1667.4453" fill="#84BE84" rx="3" ry="3" style="stroke:#038048;stroke-width:1.0;"/><text fill="#000000" font-family="sans-serif" font-size="14" lengthAdjust="spacing" textLength="265" x="34.5" y="1670.792">ShowObjectSensors(bool mode) : void</text><ellipse cx="25.5" cy="1683.7422" fill="#84BE84" rx="3" ry="3" style="stroke:#038048;stroke-width:1.0;"/><text fill="#000000" font-family="sans-serif" font-size="14" lengthAdjust="spacing" textLength="411" x="34.5" y="1687.0889">SteeringSensorSetVisible(int object_index, bool value) : void</text><ellipse cx="25.5" cy="1700.0391" fill="#84BE84" rx="3" ry="3" style="stroke:#038048;stroke-width:1.0;"/><text fill="#000000" font-family="sans-serif" font-size="14" lengthAdjust="spacing" textLength="161" x="34.5" y="1703.3857">UpdateCSV_Log() : void</text><ellipse cx="25.5" cy="1716.3359" fill="#84BE84" rx="3" ry="3" style="stroke:#038048;stroke-width:1.0;"/><text fill="#000000" font-family="sans-serif" font-size="14" lengthAdjust="spacing" textLength="194" x="34.5" y="1719.6826">ViewerFrame(bool init) : void</text></g><!--class ScenarioPlayer::PlayerState--><g id="elem_ScenarioPlayer::PlayerState"><rect codeLine="119" fill="#F1F1F1" height="113.1875" id="ScenarioPlayer::PlayerState" rx="2.5" ry="2.5" style="stroke:#181818;stroke-width:0.5;" width="220" x="1133" y="823.5"/><ellipse cx="1148" cy="839.5" fill="#EB937F" rx="11" ry="11" style="stroke:#181818;stroke-width:1.0;"/><path d="M1152.1094,845.5 L1144.3906,845.5 L1144.3906,833.1094 L1152.1094,833.1094 L1152.1094,835.2656 L1146.8438,835.2656 L1146.8438,837.9375 L1151.6094,837.9375 L1151.6094,840.0938 L1146.8438,840.0938 L1146.8438,843.3438 L1152.1094,843.3438 L1152.1094,845.5 Z " fill="#000000"/><text fill="#000000" font-family="sans-serif" font-size="14" lengthAdjust="spacing" textLength="188" x="1162" y="844.3467">ScenarioPlayer::PlayerState</text><line style="stroke:#181818;stroke-width:0.5;" x1="1134" x2="1352" y1="855.5" y2="855.5"/><text fill="#000000" font-family="sans-serif" font-size="14" lengthAdjust="spacing" textLength="158" x="1139" y="872.4951">PLAYER_STATE_PAUSE</text><text fill="#000000" font-family="sans-serif" font-size="14" lengthAdjust="spacing" textLength="170" x="1139" y="888.792">PLAYER_STATE_PLAYING</text><text fill="#000000" font-family="sans-serif" font-size="14" lengthAdjust="spacing" textLength="148" x="1139" y="905.0889">PLAYER_STATE_STEP</text><text fill="#000000" font-family="sans-serif" font-size="14" lengthAdjust="spacing" textLength="193" x="1139" y="921.3857">PLAYER_STATE_UNDEFINED</text><line style="stroke:#181818;stroke-width:0.5;" x1="1134" x2="1352" y1="928.6875" y2="928.6875"/></g><!--class ScenarioPlayer::RequestControlMode--><g id="elem_ScenarioPlayer::RequestControlMode"><rect codeLine="126" fill="#F1F1F1" height="113.1875" id="ScenarioPlayer::RequestControlMode" rx="2.5" ry="2.5" style="stroke:#181818;stroke-width:0.5;" width="291" x="1388.5" y="823.5"/><ellipse cx="1403.5" cy="839.5" fill="#EB937F" rx="11" ry="11" style="stroke:#181818;stroke-width:1.0;"/><path d="M1407.6094,845.5 L1399.8906,845.5 L1399.8906,833.1094 L1407.6094,833.1094 L1407.6094,835.2656 L1402.3438,835.2656 L1402.3438,837.9375 L1407.1094,837.9375 L1407.1094,840.0938 L1402.3438,840.0938 L1402.3438,843.3438 L1407.6094,843.3438 L1407.6094,845.5 Z " fill="#000000"/><text fill="#000000" font-family="sans-serif" font-size="14" lengthAdjust="spacing" textLength="259" x="1417.5" y="844.3467">ScenarioPlayer::RequestControlMode</text><line style="stroke:#181818;stroke-width:0.5;" x1="1389.5" x2="1678.5" y1="855.5" y2="855.5"/><text fill="#000000" font-family="sans-serif" font-size="14" lengthAdjust="spacing" textLength="131" x="1394.5" y="872.4951">CONTROL_BY_OSC</text><text fill="#000000" font-family="sans-serif" font-size="14" lengthAdjust="spacing" textLength="147" x="1394.5" y="888.792">CONTROL_EXTERNAL</text><text fill="#000000" font-family="sans-serif" font-size="14" lengthAdjust="spacing" textLength="128" x="1394.5" y="905.0889">CONTROL_HYBRID</text><text fill="#000000" font-family="sans-serif" font-size="14" lengthAdjust="spacing" textLength="142" x="1394.5" y="921.3857">CONTROL_INTERNAL</text><line style="stroke:#181818;stroke-width:0.5;" x1="1389.5" x2="1678.5" y1="928.6875" y2="928.6875"/></g><!--class ScenarioPlayer::ViewerState--><g id="elem_ScenarioPlayer::ViewerState"><rect codeLine="133" fill="#F1F1F1" height="113.1875" id="ScenarioPlayer::ViewerState" rx="2.5" ry="2.5" style="stroke:#181818;stroke-width:0.5;" width="227" x="1129.5" y="1787"/><ellipse cx="1145.4" cy="1803" fill="#EB937F" rx="11" ry="11" style="stroke:#181818;stroke-width:1.0;"/><path d="M1149.5094,1809 L1141.7906,1809 L1141.7906,1796.6094 L1149.5094,1796.6094 L1149.5094,1798.7656 L1144.2438,1798.7656 L1144.2438,1801.4375 L1149.0094,1801.4375 L1149.0094,1803.5938 L1144.2438,1803.5938 L1144.2438,1806.8438 L1149.5094,1806.8438 L1149.5094,1809 Z " fill="#000000"/><text fill="#000000" font-family="sans-serif" font-size="14" lengthAdjust="spacing" textLength="193" x="1159.6" y="1807.8467">ScenarioPlayer::ViewerState</text><line style="stroke:#181818;stroke-width:0.5;" x1="1130.5" x2="1355.5" y1="1819" y2="1819"/><text fill="#000000" font-family="sans-serif" font-size="14" lengthAdjust="spacing" textLength="153" x="1135.5" y="1835.9951">VIEWER_STATE_DONE</text><text fill="#000000" font-family="sans-serif" font-size="14" lengthAdjust="spacing" textLength="159" x="1135.5" y="1852.292">VIEWER_STATE_FAILED</text><text fill="#000000" font-family="sans-serif" font-size="14" lengthAdjust="spacing" textLength="215" x="1135.5" y="1868.5889">VIEWER_STATE_NOT_STARTED</text><text fill="#000000" font-family="sans-serif" font-size="14" lengthAdjust="spacing" textLength="178" x="1135.5" y="1884.8857">VIEWER_STATE_STARTED</text><line style="stroke:#181818;stroke-width:0.5;" x1="1130.5" x2="1355.5" y1="1892.1875" y2="1892.1875"/></g><!--class ObjCallback--><g id="elem_ObjCallback"><rect codeLine="140" fill="#F1F1F1" height="96.8906" id="ObjCallback" rx="2.5" ry="2.5" style="stroke:#181818;stroke-width:0.5;" width="183" x="464.5" y="1795"/><ellipse cx="511.75" cy="1811" fill="#ADD1B2" rx="11" ry="11" style="stroke:#181818;stroke-width:1.0;"/><path d="M514.7188,1816.6406 Q514.1406,1816.9375 513.5,1817.0781 Q512.8594,1817.2344 512.1563,1817.2344 Q509.6563,1817.2344 508.3281,1815.5938 Q507.0156,1813.9375 507.0156,1810.8125 Q507.0156,1807.6875 508.3281,1806.0313 Q509.6563,1804.375 512.1563,1804.375 Q512.8594,1804.375 513.5,1804.5313 Q514.1563,1804.6875 514.7188,1804.9844 L514.7188,1807.7031 Q514.0938,1807.125 513.5,1806.8594 Q512.9063,1806.5781 512.2813,1806.5781 Q510.9375,1806.5781 510.25,1807.6563 Q509.5625,1808.7188 509.5625,1810.8125 Q509.5625,1812.9063 510.25,1813.9844 Q510.9375,1815.0469 512.2813,1815.0469 Q512.9063,1815.0469 513.5,1814.7813 Q514.0938,1814.5 514.7188,1813.9219 L514.7188,1816.6406 Z " fill="#000000"/><text fill="#000000" font-family="sans-serif" font-size="14" lengthAdjust="spacing" textLength="80" x="532.25" y="1815.8467">ObjCallback</text><line style="stroke:#181818;stroke-width:0.5;" x1="465.5" x2="646.5" y1="1827" y2="1827"/><ellipse cx="475.5" cy="1840.6484" fill="none" rx="3" ry="3" style="stroke:#038048;stroke-width:1.0;"/><text fill="#000000" font-family="sans-serif" font-size="14" lengthAdjust="spacing" textLength="157" x="484.5" y="1843.9951">func : ObjCallbackFunc</text><ellipse cx="475.5" cy="1856.9453" fill="none" rx="3" ry="3" style="stroke:#038048;stroke-width:1.0;"/><text fill="#000000" font-family="sans-serif" font-size="14" lengthAdjust="spacing" textLength="42" x="484.5" y="1860.292">id : int</text><ellipse cx="475.5" cy="1873.2422" fill="none" rx="3" ry="3" style="stroke:#038048;stroke-width:1.0;"/><text fill="#000000" font-family="sans-serif" font-size="14" lengthAdjust="spacing" textLength="78" x="484.5" y="1876.5889">data : void*</text><line style="stroke:#181818;stroke-width:0.5;" x1="465.5" x2="646.5" y1="1883.8906" y2="1883.8906"/></g><!--class ImageCallBack--><g id="elem_ImageCallBack"><rect codeLine="8" fill="#F1F1F1" height="80.5938" id="ImageCallBack" rx="2.5" ry="2.5" style="stroke:#181818;stroke-width:0.5;" width="256" x="1715" y="839.5"/><ellipse cx="1788.75" cy="855.5" fill="#ADD1B2" rx="11" ry="11" style="stroke:#181818;stroke-width:1.0;"/><path d="M1791.7188,861.1406 Q1791.1406,861.4375 1790.5,861.5781 Q1789.8594,861.7344 1789.1563,861.7344 Q1786.6563,861.7344 1785.3281,860.0938 Q1784.0156,858.4375 1784.0156,855.3125 Q1784.0156,852.1875 1785.3281,850.5313 Q1786.6563,848.875 1789.1563,848.875 Q1789.8594,848.875 1790.5,849.0313 Q1791.1563,849.1875 1791.7188,849.4844 L1791.7188,852.2031 Q1791.0938,851.625 1790.5,851.3594 Q1789.9063,851.0781 1789.2813,851.0781 Q1787.9375,851.0781 1787.25,852.1563 Q1786.5625,853.2188 1786.5625,855.3125 Q1786.5625,857.4063 1787.25,858.4844 Q1787.9375,859.5469 1789.2813,859.5469 Q1789.9063,859.5469 1790.5,859.2813 Q1791.0938,859 1791.7188,858.4219 L1791.7188,861.1406 Z " fill="#000000"/><text fill="#000000" font-family="sans-serif" font-size="14" lengthAdjust="spacing" textLength="100" x="1809.25" y="860.3467">ImageCallBack</text><line style="stroke:#181818;stroke-width:0.5;" x1="1716" x2="1970" y1="871.5" y2="871.5"/><ellipse cx="1726" cy="885.1484" fill="none" rx="3" ry="3" style="stroke:#038048;stroke-width:1.0;"/><text fill="#000000" font-family="sans-serif" font-size="14" lengthAdjust="spacing" textLength="230" x="1735" y="888.4951">func : viewer::ImageCallbackFunc</text><ellipse cx="1726" cy="901.4453" fill="none" rx="3" ry="3" style="stroke:#038048;stroke-width:1.0;"/><text fill="#000000" font-family="sans-serif" font-size="14" lengthAdjust="spacing" textLength="78" x="1735" y="904.792">data : void*</text><line style="stroke:#181818;stroke-width:0.5;" x1="1716" x2="1970" y1="912.0938" y2="912.0938"/></g><!--reverse link ScenarioPlayer to ObjCallback--><g id="link_ScenarioPlayer_ObjCallback"><path codeLine="158" d="M556,1739.2794 C556,1765.7416 556,1776.6342 556,1794.9379 " fill="none" id="ScenarioPlayer-backto-ObjCallback" style="stroke:#181818;stroke-width:1.0;"/><polygon fill="#181818" points="556,1727.2794,552,1733.2794,556,1739.2794,560,1733.2794,556,1727.2794" style="stroke:#181818;stroke-width:1.0;"/></g><!--SRC=[hLXVSzeu47ykdy9FLuuaxJlJwGpXJyiC0GwJtFN98-m5r1hBbMGIskbzzjkLR2CR22HN7X9fzxUhzMft9UtxjzvayHL2hRotxnkDC6PAUSCDMq6NnV4j2xzvFnjlhfPP4dfjRylX4MIxNG8M21WW3o4HqumWWaUjngz6ev6m3QYKXU2f418ckO1anHCWXNOTFwTFOxO3IVGtLrLQaoVQOt8LNdlXciaMZRT_4kxV6j0Gk_v3C18hD2CVhK2sY24Kdq4gfCPbsjx47nOpmns03jTTbkfCGcI-RQfH8o6NIp-K08cX4lX6QQOXG9vTsASfqJUPXYSa-_tWZeQaE3MGW2TS1mesB5qB2HRZ5rF2MR-UnTtejGGMMSRSZ4cwS6_VkhTT-jKIMYxc4rhxo7OEAAUqzdRunHS-xAV47QefonH4nZCB8MBlv_SCvEwNPVwLSJq3f2Xz77CJSSKMCGIXIBGKSGnI1JcCs373I5gZ0-JMR5D1nyqBiXJZ2o8N_XtN2wHTq25R7wazvUeJw2cJ68sutsFyPuAA9n4yNMCeT4jU3p0i9TDS9AhTBidpNGejJ-DV-YOJXeLMALAGUbTNIiCqvms9T4hmWSNPooGVSCl8Xx_jEsueeuA2O9RPi2TVG-hp7nHCk5detqXakAhXykGPBfeuu4yGpVc6uY0rSM3PRYGi2HFe71IK6BE1al4uYBHBlEf4KJTJMcow-36IDNEL-ENvQ5UEVfIZTJbAhsqmsdLJeSWiTD_BLPzNOxzVf2-nL0fzJDM8hzRQ5vaCuJ8zg00InVMkgisMU1zPGZRjfEM9nTUzVuGAdYgpNMNc-1IJYoUhSfu0am4cjYufomE2s7wseOsHXQixjWqeDfl6fpRjWus8u02GAohZHUNxS5m6Ox0hClI4hU6qi5Eea3lEDWkGawNh5dK6MwPH2Qm3RDfoKFkyF8xC5-nepS8rXOgresbpoTcUvoqgIa7TeD9IMrsiLdjwqf5yROzeRqlSvoHlqSD7fCdnVvoNxfajEo9lz_823SD47n57z0MolfOOf4V47SfHDUQmEn4AXSDVxDUAu4lTMX5-ZLSh2bxcr8hewtmwn3jDipQtzmgNEX8isfzVM3maNsHqW3MLZjfjPPR6iXi3BUa8-cmBvcwcvcA0R9Dx2MQ7AHpg17BMkSkB3cst2yelHS-NdM-mMygQ7HVadQKSZv9BvEdJNYENVyPhH5tAQ-IDkuu8dakbCwuw9tx2K-V4JZlgCdjF-kcS-34tqSKi3FPJ4t5uTJO7Mr19qqblTiSI36sRKnAJQMFdxVOaXQGd-TO-0qI4fwLbFG-49mXIfjUqa9E2nNLSGWYSZbuMHV8GehcEytfnm2mUHVdPNV2pX6En3L8jF-GFAyF_QAnUV2qUcmLyYsUaa1ycUuv1AdEq7eBAOxxbm0OIBrdPfeOkthWMJwKgnrbHV3jQJW_ZFgGIvRoB3vdEiofmWBO2jehhcJyi1Km14yRYeBn3K2AOzsqi53ZLiw3t97ki4AZATlUlhAbGkdWdrr0FiEPX37TuXOghLyF2rYwJXjlow9uLkmgckAVwNc40LVJEO8Kb7Eye-zsnTwBesdDer3ZmgBDG79tKGd3rb4zyDDzMv0gt_jIebUiQ5frC1mGTy9corP-hG2JLv7MF64VOUTjQKNfyrZ3swk1q1VQdIubQYyVgfTCeA-wl9Km3KBPO4DKFhlWYFzpSsAXNZaB1lNajvpsGYjDiy3ZNRkevk81gfyHsSweXR4c_6eqta63sLFim-Dvq740TdUceywK_2_nvPzuFffrxltz0nCbm_AbEzkVzQPrsF-xr1yDnl_UC0Va-vU5FeMliw4x6yzba5Dn-2V2nx13w_ypxit5dv90-VxcT3NiEOJWkC2UNTPebPhs7OV_lqkxUPDolqmQTuOW-f4eTJ-OqciqFMIMPRB0TD2URRFiiRzJLiemuFDgV6PLU7QgZTXt-th_rXiaQGq-p9CH7ASIsYR3cgMqFMandjPAmCgmZc6gpxrsjnzUwkQcr0zyvjZPAEyQcYvG7-oMAhmuLLn7lt7xT_zTs66M_GQdRSCFVVm00]--></g></svg>