<?xml version="1.0" encoding="us-ascii" standalone="no"?><svg xmlns="http://www.w3.org/2000/svg" xmlns:xlink="http://www.w3.org/1999/xlink" contentStyleType="text/css" height="1426px" preserveAspectRatio="none" style="width:1418px;height:1426px;background:#FFFFFF;" version="1.1" viewBox="0 0 1418 1426" width="1418px" zoomAndPan="magnify"><defs/><g><!--cluster scenarioengine--><g id="cluster_scenarioengine"><path d="M8.5,6 L131.5,6 A3.75,3.75 0 0 1 134,8.5 L141,28.2969 L1124.5,28.2969 A2.5,2.5 0 0 1 1127,30.7969 L1127,1416.5 A2.5,2.5 0 0 1 1124.5,1419 L8.5,1419 A2.5,2.5 0 0 1 6,1416.5 L6,8.5 A2.5,2.5 0 0 1 8.5,6 " fill="none" style="stroke:#000000;stroke-width:1.5;"/><line style="stroke:#000000;stroke-width:1.5;" x1="6" x2="141" y1="28.2969" y2="28.2969"/><text fill="#000000" font-family="sans-serif" font-size="14" font-weight="bold" lengthAdjust="spacing" textLength="122" x="10" y="20.9951">scenarioengine</text></g><!--class ScenarioPlayer--><g id="elem_ScenarioPlayer"><rect codeLine="15" fill="#F1F1F1" height="1205.0781" id="ScenarioPlayer" rx="2.5" ry="2.5" style="stroke:#181818;stroke-width:0.5;" width="524" x="14" y="33"/><ellipse cx="221.25" cy="49" fill="#ADD1B2" rx="11" ry="11" style="stroke:#181818;stroke-width:1.0;"/><path d="M224.2188,54.6406 Q223.6406,54.9375 223,55.0781 Q222.3594,55.2344 221.6563,55.2344 Q219.1563,55.2344 217.8281,53.5938 Q216.5156,51.9375 216.5156,48.8125 Q216.5156,45.6875 217.8281,44.0313 Q219.1563,42.375 221.6563,42.375 Q222.3594,42.375 223,42.5313 Q223.6563,42.6875 224.2188,42.9844 L224.2188,45.7031 Q223.5938,45.125 223,44.8594 Q222.4063,44.5781 221.7813,44.5781 Q220.4375,44.5781 219.75,45.6563 Q219.0625,46.7188 219.0625,48.8125 Q219.0625,50.9063 219.75,51.9844 Q220.4375,53.0469 221.7813,53.0469 Q222.4063,53.0469 223,52.7813 Q223.5938,52.5 224.2188,51.9219 L224.2188,54.6406 Z " fill="#000000"/><text fill="#000000" font-family="sans-serif" font-size="14" lengthAdjust="spacing" textLength="101" x="241.75" y="53.8467">ScenarioPlayer</text><line style="stroke:#181818;stroke-width:0.5;" x1="15" x2="537" y1="65" y2="65"/><ellipse cx="25" cy="78.6484" fill="none" rx="3" ry="3" style="stroke:#038048;stroke-width:1.0;"/><text fill="#000000" font-family="sans-serif" font-size="14" lengthAdjust="spacing" textLength="163" x="34" y="81.9951">CSV_Log : CSV_Logger*</text><ellipse cx="25" cy="94.9453" fill="none" rx="3" ry="3" style="stroke:#038048;stroke-width:1.0;"/><text fill="#000000" font-family="sans-serif" font-size="14" lengthAdjust="spacing" textLength="185" x="34" y="98.292">osiReporter : OSIReporter*</text><rect fill="none" height="6" style="stroke:#C82930;stroke-width:1.0;" width="6" x="22" y="108.2422"/><text fill="#000000" font-family="sans-serif" font-size="14" lengthAdjust="spacing" textLength="132" x="34" y="114.5889">state_ : PlayerState</text><rect fill="none" height="6" style="stroke:#C82930;stroke-width:1.0;" width="6" x="22" y="124.5391"/><text fill="#000000" font-family="sans-serif" font-size="14" lengthAdjust="spacing" textLength="67" x="34" y="130.8857">argc_ : int</text><rect fill="none" height="6" style="stroke:#C82930;stroke-width:1.0;" width="6" x="22" y="140.8359"/><text fill="#000000" font-family="sans-serif" font-size="14" lengthAdjust="spacing" textLength="137" x="34" y="147.1826">frame_counter_ : int</text><ellipse cx="25" cy="160.1328" fill="none" rx="3" ry="3" style="stroke:#038048;stroke-width:1.0;"/><text fill="#000000" font-family="sans-serif" font-size="14" lengthAdjust="spacing" textLength="286" x="34" y="163.4795">odr_manager : roadmanager::OpenDrive*</text><ellipse cx="25" cy="176.4297" fill="none" rx="3" ry="3" style="stroke:#038048;stroke-width:1.0;"/><text fill="#000000" font-family="sans-serif" font-size="14" lengthAdjust="spacing" textLength="154" x="34" y="179.7764">exe_path_ : std::string</text><rect fill="none" height="6" style="stroke:#C82930;stroke-width:1.0;" width="6" x="22" y="189.7266"/><text fill="#000000" font-family="sans-serif" font-size="14" lengthAdjust="spacing" textLength="204" x="34" y="196.0732">osi_receiver_addr : std::string</text><rect fill="none" height="6" style="stroke:#C82930;stroke-width:1.0;" width="6" x="22" y="206.0234"/><text fill="#000000" font-family="sans-serif" font-size="14" lengthAdjust="spacing" textLength="149" x="34" y="212.3701">titleString : std::string</text><ellipse cx="25" cy="225.3203" fill="none" rx="3" ry="3" style="stroke:#038048;stroke-width:1.0;"/><text fill="#000000" font-family="sans-serif" font-size="14" lengthAdjust="spacing" textLength="326" x="34" y="228.667">player_server_ : std::unique_ptr&lt;PlayerServer&gt;</text><ellipse cx="25" cy="241.6172" fill="none" rx="3" ry="3" style="stroke:#038048;stroke-width:1.0;"/><text fill="#000000" font-family="sans-serif" font-size="14" lengthAdjust="spacing" textLength="270" x="34" y="244.9639">objCallback : std::vector&lt;ObjCallback&gt;</text><ellipse cx="25" cy="257.9141" fill="none" rx="3" ry="3" style="stroke:#038048;stroke-width:1.0;"/><text fill="#000000" font-family="sans-serif" font-size="14" lengthAdjust="spacing" textLength="261" x="34" y="261.2607">sensor : std::vector&lt;ObjectSensor*&gt;</text><ellipse cx="25" cy="274.2109" fill="none" rx="3" ry="3" style="stroke:#038048;stroke-width:1.0;"/><text fill="#000000" font-family="sans-serif" font-size="14" lengthAdjust="spacing" textLength="416" x="34" y="277.5576">sensorFrustum : std::vector&lt;viewer::SensorViewFrustum*&gt;</text><ellipse cx="25" cy="290.5078" fill="none" rx="3" ry="3" style="stroke:#038048;stroke-width:1.0;"/><text fill="#000000" font-family="sans-serif" font-size="14" lengthAdjust="spacing" textLength="354" x="34" y="293.8545">OSISensorDetection : viewer::OSISensorDetection*</text><ellipse cx="25" cy="306.8047" fill="none" rx="3" ry="3" style="stroke:#038048;stroke-width:1.0;"/><text fill="#000000" font-family="sans-serif" font-size="14" lengthAdjust="spacing" textLength="171" x="34" y="310.1514">viewer_ : viewer::Viewer*</text><ellipse cx="25" cy="323.1016" fill="none" rx="3" ry="3" style="stroke:#038048;stroke-width:1.0;"/><text fill="#000000" font-family="sans-serif" font-size="14" lengthAdjust="spacing" textLength="129" x="34" y="326.4482">osiReporter : void*</text><ellipse cx="25" cy="339.3984" fill="none" rx="3" ry="3" style="stroke:#038048;stroke-width:1.0;"/><text fill="#000000" font-family="sans-serif" font-size="14" lengthAdjust="spacing" textLength="99" x="34" y="342.7451">viewer_ : void*</text><line style="stroke:#181818;stroke-width:0.5;" x1="15" x2="537" y1="350.0469" y2="350.0469"/><ellipse cx="25" cy="363.6953" fill="#84BE84" rx="3" ry="3" style="stroke:#038048;stroke-width:1.0;"/><text fill="#000000" font-family="sans-serif" font-size="14" lengthAdjust="spacing" textLength="289" x="34" y="367.042">ScenarioPlayer(int argc, char* argv) 'dddfa'</text><ellipse cx="25" cy="379.9922" fill="#84BE84" rx="3" ry="3" style="stroke:#038048;stroke-width:1.0;"/><text fill="#000000" font-family="sans-serif" font-size="14" lengthAdjust="spacing" textLength="123" x="34" y="383.3389">~ScenarioPlayer()</text><ellipse cx="25" cy="396.2891" fill="#84BE84" rx="3" ry="3" style="stroke:#038048;stroke-width:1.0;"/><text fill="#000000" font-family="sans-serif" font-size="14" lengthAdjust="spacing" textLength="304" x="34" y="399.6357">FetchCapturedImagePtr() : OffScreenImage*</text><ellipse cx="25" cy="412.5859" fill="#84BE84" rx="3" ry="3" style="stroke:#038048;stroke-width:1.0;"/><text fill="#000000" font-family="sans-serif" font-size="14" lengthAdjust="spacing" textLength="343" x="34" y="415.9326">Frame(double timestep_s, bool server_mode) : int</text><ellipse cx="25" cy="428.8828" fill="#84BE84" rx="3" ry="3" style="stroke:#038048;stroke-width:1.0;"/><text fill="#000000" font-family="sans-serif" font-size="14" lengthAdjust="spacing" textLength="182" x="34" y="432.2295">GetCounter() : int {query}</text><ellipse cx="25" cy="445.1797" fill="#84BE84" rx="3" ry="3" style="stroke:#038048;stroke-width:1.0;"/><text fill="#000000" font-family="sans-serif" font-size="14" lengthAdjust="spacing" textLength="298" x="34" y="448.5264">GetNumberOfObjectSensors() : int {query}</text><ellipse cx="25" cy="461.4766" fill="#84BE84" rx="3" ry="3" style="stroke:#038048;stroke-width:1.0;"/><text fill="#000000" font-family="sans-serif" font-size="14" lengthAdjust="spacing" textLength="214" x="34" y="464.8232">GetNumberOfParameters() : int</text><ellipse cx="25" cy="477.7734" fill="#84BE84" rx="3" ry="3" style="stroke:#038048;stroke-width:1.0;"/><text fill="#000000" font-family="sans-serif" font-size="14" lengthAdjust="spacing" textLength="264" x="34" y="481.1201">GetNumberOfProperties(int index) : int</text><ellipse cx="25" cy="494.0703" fill="#84BE84" rx="3" ry="3" style="stroke:#038048;stroke-width:1.0;"/><text fill="#000000" font-family="sans-serif" font-size="14" lengthAdjust="spacing" textLength="498" x="34" y="497.417">GetNumberOfSensorsAttachedToObject(const Object* obj) : int {query}</text><ellipse cx="25" cy="510.3672" fill="#84BE84" rx="3" ry="3" style="stroke:#038048;stroke-width:1.0;"/><text fill="#000000" font-family="sans-serif" font-size="14" lengthAdjust="spacing" textLength="197" x="34" y="513.7139">GetNumberOfVariables() : int</text><ellipse cx="25" cy="526.6641" fill="#84BE84" rx="3" ry="3" style="stroke:#038048;stroke-width:1.0;"/><text fill="#000000" font-family="sans-serif" font-size="14" lengthAdjust="spacing" textLength="380" x="34" y="530.0107">GetParameterValue(const char* name, void* value) : int</text><ellipse cx="25" cy="542.9609" fill="#84BE84" rx="3" ry="3" style="stroke:#038048;stroke-width:1.0;"/><text fill="#000000" font-family="sans-serif" font-size="14" lengthAdjust="spacing" textLength="418" x="34" y="546.3076">GetParameterValueBool(const char* name, bool&amp; value) : int</text><ellipse cx="25" cy="559.2578" fill="#84BE84" rx="3" ry="3" style="stroke:#038048;stroke-width:1.0;"/><text fill="#000000" font-family="sans-serif" font-size="14" lengthAdjust="spacing" textLength="455" x="34" y="562.6045">GetParameterValueDouble(const char* name, double&amp; value) : int</text><ellipse cx="25" cy="575.5547" fill="#84BE84" rx="3" ry="3" style="stroke:#038048;stroke-width:1.0;"/><text fill="#000000" font-family="sans-serif" font-size="14" lengthAdjust="spacing" textLength="391" x="34" y="578.9014">GetParameterValueInt(const char* name, int&amp; value) : int</text><ellipse cx="25" cy="591.8516" fill="#84BE84" rx="3" ry="3" style="stroke:#038048;stroke-width:1.0;"/><text fill="#000000" font-family="sans-serif" font-size="14" lengthAdjust="spacing" textLength="477" x="34" y="595.1982">GetParameterValueString(const char* name, const char*&amp; value) : int</text><ellipse cx="25" cy="608.1484" fill="#84BE84" rx="3" ry="3" style="stroke:#038048;stroke-width:1.0;"/><text fill="#000000" font-family="sans-serif" font-size="14" lengthAdjust="spacing" textLength="162" x="34" y="611.4951">GetState() : int {query}</text><ellipse cx="25" cy="624.4453" fill="#84BE84" rx="3" ry="3" style="stroke:#038048;stroke-width:1.0;"/><text fill="#000000" font-family="sans-serif" font-size="14" lengthAdjust="spacing" textLength="363" x="34" y="627.792">GetVariableValue(const char* name, void* value) : int</text><ellipse cx="25" cy="640.7422" fill="#84BE84" rx="3" ry="3" style="stroke:#038048;stroke-width:1.0;"/><text fill="#000000" font-family="sans-serif" font-size="14" lengthAdjust="spacing" textLength="401" x="34" y="644.0889">GetVariableValueBool(const char* name, bool&amp; value) : int</text><ellipse cx="25" cy="657.0391" fill="#84BE84" rx="3" ry="3" style="stroke:#038048;stroke-width:1.0;"/><text fill="#000000" font-family="sans-serif" font-size="14" lengthAdjust="spacing" textLength="438" x="34" y="660.3857">GetVariableValueDouble(const char* name, double&amp; value) : int</text><ellipse cx="25" cy="673.3359" fill="#84BE84" rx="3" ry="3" style="stroke:#038048;stroke-width:1.0;"/><text fill="#000000" font-family="sans-serif" font-size="14" lengthAdjust="spacing" textLength="374" x="34" y="676.6826">GetVariableValueInt(const char* name, int&amp; value) : int</text><ellipse cx="25" cy="689.6328" fill="#84BE84" rx="3" ry="3" style="stroke:#038048;stroke-width:1.0;"/><text fill="#000000" font-family="sans-serif" font-size="14" lengthAdjust="spacing" textLength="460" x="34" y="692.9795">GetVariableValueString(const char* name, const char*&amp; value) : int</text><ellipse cx="25" cy="705.9297" fill="#84BE84" rx="3" ry="3" style="stroke:#038048;stroke-width:1.0;"/><text fill="#000000" font-family="sans-serif" font-size="14" lengthAdjust="spacing" textLength="60" x="34" y="709.2764">Init() : int</text><ellipse cx="25" cy="722.2266" fill="#84BE84" rx="3" ry="3" style="stroke:#038048;stroke-width:1.0;"/><text fill="#000000" font-family="sans-serif" font-size="14" lengthAdjust="spacing" textLength="106" x="34" y="725.5732">InitViewer() : int</text><ellipse cx="25" cy="738.5234" fill="#84BE84" rx="3" ry="3" style="stroke:#038048;stroke-width:1.0;"/><text fill="#000000" font-family="sans-serif" font-size="14" lengthAdjust="spacing" textLength="356" x="34" y="741.8701">LoadParameterDistribution(std::string filename) : int</text><ellipse cx="25" cy="754.8203" fill="#84BE84" rx="3" ry="3" style="stroke:#038048;stroke-width:1.0;"/><text fill="#000000" font-family="sans-serif" font-size="14" lengthAdjust="spacing" textLength="265" x="34" y="758.167">SaveImagesToFile(int nrOfFrames) : int</text><ellipse cx="25" cy="771.1172" fill="#84BE84" rx="3" ry="3" style="stroke:#038048;stroke-width:1.0;"/><text fill="#000000" font-family="sans-serif" font-size="14" lengthAdjust="spacing" textLength="241" x="34" y="774.4639">SaveImagesToRAM(bool state) : int</text><ellipse cx="25" cy="787.4141" fill="#84BE84" rx="3" ry="3" style="stroke:#038048;stroke-width:1.0;"/><text fill="#000000" font-family="sans-serif" font-size="14" lengthAdjust="spacing" textLength="376" x="34" y="790.7607">ScenarioFrame(double timestep_s, bool keyframe) : int</text><ellipse cx="25" cy="803.7109" fill="#84BE84" rx="3" ry="3" style="stroke:#038048;stroke-width:1.0;"/><text fill="#000000" font-family="sans-serif" font-size="14" lengthAdjust="spacing" textLength="421" x="34" y="807.0576">SetParameterValue(const char* name, const void* value) : int</text><ellipse cx="25" cy="820.0078" fill="#84BE84" rx="3" ry="3" style="stroke:#038048;stroke-width:1.0;"/><text fill="#000000" font-family="sans-serif" font-size="14" lengthAdjust="spacing" textLength="360" x="34" y="823.3545">SetParameterValue(const char* name, int value) : int</text><ellipse cx="25" cy="836.3047" fill="#84BE84" rx="3" ry="3" style="stroke:#038048;stroke-width:1.0;"/><text fill="#000000" font-family="sans-serif" font-size="14" lengthAdjust="spacing" textLength="391" x="34" y="839.6514">SetParameterValue(const char* name, double value) : int</text><ellipse cx="25" cy="852.6016" fill="#84BE84" rx="3" ry="3" style="stroke:#038048;stroke-width:1.0;"/><text fill="#000000" font-family="sans-serif" font-size="14" lengthAdjust="spacing" textLength="423" x="34" y="855.9482">SetParameterValue(const char* name, const char* value) : int</text><ellipse cx="25" cy="868.8984" fill="#84BE84" rx="3" ry="3" style="stroke:#038048;stroke-width:1.0;"/><text fill="#000000" font-family="sans-serif" font-size="14" lengthAdjust="spacing" textLength="373" x="34" y="872.2451">SetParameterValue(const char* name, bool value) : int</text><ellipse cx="25" cy="885.1953" fill="#84BE84" rx="3" ry="3" style="stroke:#038048;stroke-width:1.0;"/><text fill="#000000" font-family="sans-serif" font-size="14" lengthAdjust="spacing" textLength="404" x="34" y="888.542">SetVariableValue(const char* name, const void* value) : int</text><ellipse cx="25" cy="901.4922" fill="#84BE84" rx="3" ry="3" style="stroke:#038048;stroke-width:1.0;"/><text fill="#000000" font-family="sans-serif" font-size="14" lengthAdjust="spacing" textLength="343" x="34" y="904.8389">SetVariableValue(const char* name, int value) : int</text><ellipse cx="25" cy="917.7891" fill="#84BE84" rx="3" ry="3" style="stroke:#038048;stroke-width:1.0;"/><text fill="#000000" font-family="sans-serif" font-size="14" lengthAdjust="spacing" textLength="374" x="34" y="921.1357">SetVariableValue(const char* name, double value) : int</text><ellipse cx="25" cy="934.0859" fill="#84BE84" rx="3" ry="3" style="stroke:#038048;stroke-width:1.0;"/><text fill="#000000" font-family="sans-serif" font-size="14" lengthAdjust="spacing" textLength="406" x="34" y="937.4326">SetVariableValue(const char* name, const char* value) : int</text><ellipse cx="25" cy="950.3828" fill="#84BE84" rx="3" ry="3" style="stroke:#038048;stroke-width:1.0;"/><text fill="#000000" font-family="sans-serif" font-size="14" lengthAdjust="spacing" textLength="356" x="34" y="953.7295">SetVariableValue(const char* name, bool value) : int</text><ellipse cx="25" cy="966.6797" fill="#84BE84" rx="3" ry="3" style="stroke:#038048;stroke-width:1.0;"/><text fill="#000000" font-family="sans-serif" font-size="14" lengthAdjust="spacing" textLength="322" x="34" y="970.0264">GetODRManager() : roadmanager::OpenDrive*</text><ellipse cx="25" cy="982.9766" fill="#84BE84" rx="3" ry="3" style="stroke:#038048;stroke-width:1.0;"/><text fill="#000000" font-family="sans-serif" font-size="14" lengthAdjust="spacing" textLength="277" x="34" y="986.3232">AddOSIDetection(int object_index) : void</text><ellipse cx="25" cy="999.2734" fill="#84BE84" rx="3" ry="3" style="stroke:#038048;stroke-width:1.0;"/><text fill="#000000" font-family="sans-serif" font-size="14" lengthAdjust="spacing" textLength="136" x="34" y="1002.6201">CloseViewer() : void</text><ellipse cx="25" cy="1015.5703" fill="#84BE84" rx="3" ry="3" style="stroke:#038048;stroke-width:1.0;"/><text fill="#000000" font-family="sans-serif" font-size="14" lengthAdjust="spacing" textLength="86" x="34" y="1018.917">Draw() : void</text><ellipse cx="25" cy="1031.8672" fill="#84BE84" rx="3" ry="3" style="stroke:#038048;stroke-width:1.0;"/><text fill="#000000" font-family="sans-serif" font-size="14" lengthAdjust="spacing" textLength="218" x="34" y="1035.2139">InitControllersPostPlayer() : void</text><ellipse cx="25" cy="1048.1641" fill="#84BE84" rx="3" ry="3" style="stroke:#038048;stroke-width:1.0;"/><text fill="#000000" font-family="sans-serif" font-size="14" lengthAdjust="spacing" textLength="421" x="34" y="1051.5107">InitVehicleModel(Object* obj, viewer::CarModel* model) : void</text><ellipse cx="25" cy="1064.4609" fill="#84BE84" rx="3" ry="3" style="stroke:#038048;stroke-width:1.0;"/><text fill="#000000" font-family="sans-serif" font-size="14" lengthAdjust="spacing" textLength="126" x="34" y="1067.8076">PrintUsage() : void</text><ellipse cx="25" cy="1080.7578" fill="#84BE84" rx="3" ry="3" style="stroke:#038048;stroke-width:1.0;"/><text fill="#000000" font-family="sans-serif" font-size="14" lengthAdjust="spacing" textLength="455" x="34" y="1084.1045">RegisterObjCallback(int id, ObjCallbackFunc func, void* data) : void</text><ellipse cx="25" cy="1097.0547" fill="#84BE84" rx="3" ry="3" style="stroke:#038048;stroke-width:1.0;"/><text fill="#000000" font-family="sans-serif" font-size="14" lengthAdjust="spacing" textLength="185" x="34" y="1100.4014">ScenarioPostFrame() : void</text><ellipse cx="25" cy="1113.3516" fill="#84BE84" rx="3" ry="3" style="stroke:#038048;stroke-width:1.0;"/><text fill="#000000" font-family="sans-serif" font-size="14" lengthAdjust="spacing" textLength="288" x="34" y="1116.6982">SetFixedTimestep(double timestep) : void</text><ellipse cx="25" cy="1129.6484" fill="#84BE84" rx="3" ry="3" style="stroke:#038048;stroke-width:1.0;"/><text fill="#000000" font-family="sans-serif" font-size="14" lengthAdjust="spacing" textLength="384" x="34" y="1132.9951">SetOSIFileStatus(bool is_on, const char* filename) : void</text><ellipse cx="25" cy="1145.9453" fill="#84BE84" rx="3" ry="3" style="stroke:#038048;stroke-width:1.0;"/><text fill="#000000" font-family="sans-serif" font-size="14" lengthAdjust="spacing" textLength="221" x="34" y="1149.292">SetQuitRequest(bool quit) : void</text><ellipse cx="25" cy="1162.2422" fill="#84BE84" rx="3" ry="3" style="stroke:#038048;stroke-width:1.0;"/><text fill="#000000" font-family="sans-serif" font-size="14" lengthAdjust="spacing" textLength="226" x="34" y="1165.5889">SetState(PlayerState state) : void</text><ellipse cx="25" cy="1178.5391" fill="#84BE84" rx="3" ry="3" style="stroke:#038048;stroke-width:1.0;"/><text fill="#000000" font-family="sans-serif" font-size="14" lengthAdjust="spacing" textLength="265" x="34" y="1181.8857">ShowObjectSensors(bool mode) : void</text><ellipse cx="25" cy="1194.8359" fill="#84BE84" rx="3" ry="3" style="stroke:#038048;stroke-width:1.0;"/><text fill="#000000" font-family="sans-serif" font-size="14" lengthAdjust="spacing" textLength="411" x="34" y="1198.1826">SteeringSensorSetVisible(int object_index, bool value) : void</text><ellipse cx="25" cy="1211.1328" fill="#84BE84" rx="3" ry="3" style="stroke:#038048;stroke-width:1.0;"/><text fill="#000000" font-family="sans-serif" font-size="14" lengthAdjust="spacing" textLength="161" x="34" y="1214.4795">UpdateCSV_Log() : void</text><ellipse cx="25" cy="1227.4297" fill="#84BE84" rx="3" ry="3" style="stroke:#038048;stroke-width:1.0;"/><text fill="#000000" font-family="sans-serif" font-size="14" lengthAdjust="spacing" textLength="194" x="34" y="1230.7764">ViewerFrame(bool init) : void</text></g><!--class ScenarioPlayer::PlayerState--><g id="elem_ScenarioPlayer::PlayerState"><rect codeLine="119" fill="#F1F1F1" height="113.1875" id="ScenarioPlayer::PlayerState" rx="2.5" ry="2.5" style="stroke:#181818;stroke-width:0.5;" width="220" x="573" y="579"/><ellipse cx="588" cy="595" fill="#EB937F" rx="11" ry="11" style="stroke:#181818;stroke-width:1.0;"/><path d="M592.1094,601 L584.3906,601 L584.3906,588.6094 L592.1094,588.6094 L592.1094,590.7656 L586.8438,590.7656 L586.8438,593.4375 L591.6094,593.4375 L591.6094,595.5938 L586.8438,595.5938 L586.8438,598.8438 L592.1094,598.8438 L592.1094,601 Z " fill="#000000"/><text fill="#000000" font-family="sans-serif" font-size="14" lengthAdjust="spacing" textLength="188" x="602" y="599.8467">ScenarioPlayer::PlayerState</text><line style="stroke:#181818;stroke-width:0.5;" x1="574" x2="792" y1="611" y2="611"/><text fill="#000000" font-family="sans-serif" font-size="14" lengthAdjust="spacing" textLength="158" x="579" y="627.9951">PLAYER_STATE_PAUSE</text><text fill="#000000" font-family="sans-serif" font-size="14" lengthAdjust="spacing" textLength="170" x="579" y="644.292">PLAYER_STATE_PLAYING</text><text fill="#000000" font-family="sans-serif" font-size="14" lengthAdjust="spacing" textLength="148" x="579" y="660.5889">PLAYER_STATE_STEP</text><text fill="#000000" font-family="sans-serif" font-size="14" lengthAdjust="spacing" textLength="193" x="579" y="676.8857">PLAYER_STATE_UNDEFINED</text><line style="stroke:#181818;stroke-width:0.5;" x1="574" x2="792" y1="684.1875" y2="684.1875"/></g><!--class ScenarioPlayer::RequestControlMode--><g id="elem_ScenarioPlayer::RequestControlMode"><rect codeLine="126" fill="#F1F1F1" height="113.1875" id="ScenarioPlayer::RequestControlMode" rx="2.5" ry="2.5" style="stroke:#181818;stroke-width:0.5;" width="291" x="828.5" y="579"/><ellipse cx="843.5" cy="595" fill="#EB937F" rx="11" ry="11" style="stroke:#181818;stroke-width:1.0;"/><path d="M847.6094,601 L839.8906,601 L839.8906,588.6094 L847.6094,588.6094 L847.6094,590.7656 L842.3438,590.7656 L842.3438,593.4375 L847.1094,593.4375 L847.1094,595.5938 L842.3438,595.5938 L842.3438,598.8438 L847.6094,598.8438 L847.6094,601 Z " fill="#000000"/><text fill="#000000" font-family="sans-serif" font-size="14" lengthAdjust="spacing" textLength="259" x="857.5" y="599.8467">ScenarioPlayer::RequestControlMode</text><line style="stroke:#181818;stroke-width:0.5;" x1="829.5" x2="1118.5" y1="611" y2="611"/><text fill="#000000" font-family="sans-serif" font-size="14" lengthAdjust="spacing" textLength="131" x="834.5" y="627.9951">CONTROL_BY_OSC</text><text fill="#000000" font-family="sans-serif" font-size="14" lengthAdjust="spacing" textLength="147" x="834.5" y="644.292">CONTROL_EXTERNAL</text><text fill="#000000" font-family="sans-serif" font-size="14" lengthAdjust="spacing" textLength="128" x="834.5" y="660.5889">CONTROL_HYBRID</text><text fill="#000000" font-family="sans-serif" font-size="14" lengthAdjust="spacing" textLength="142" x="834.5" y="676.8857">CONTROL_INTERNAL</text><line style="stroke:#181818;stroke-width:0.5;" x1="829.5" x2="1118.5" y1="684.1875" y2="684.1875"/></g><!--class ScenarioPlayer::ViewerState--><g id="elem_ScenarioPlayer::ViewerState"><rect codeLine="133" fill="#F1F1F1" height="113.1875" id="ScenarioPlayer::ViewerState" rx="2.5" ry="2.5" style="stroke:#181818;stroke-width:0.5;" width="227" x="569.5" y="1298"/><ellipse cx="585.4" cy="1314" fill="#EB937F" rx="11" ry="11" style="stroke:#181818;stroke-width:1.0;"/><path d="M589.5094,1320 L581.7906,1320 L581.7906,1307.6094 L589.5094,1307.6094 L589.5094,1309.7656 L584.2438,1309.7656 L584.2438,1312.4375 L589.0094,1312.4375 L589.0094,1314.5938 L584.2438,1314.5938 L584.2438,1317.8438 L589.5094,1317.8438 L589.5094,1320 Z " fill="#000000"/><text fill="#000000" font-family="sans-serif" font-size="14" lengthAdjust="spacing" textLength="193" x="599.6" y="1318.8467">ScenarioPlayer::ViewerState</text><line style="stroke:#181818;stroke-width:0.5;" x1="570.5" x2="795.5" y1="1330" y2="1330"/><text fill="#000000" font-family="sans-serif" font-size="14" lengthAdjust="spacing" textLength="153" x="575.5" y="1346.9951">VIEWER_STATE_DONE</text><text fill="#000000" font-family="sans-serif" font-size="14" lengthAdjust="spacing" textLength="159" x="575.5" y="1363.292">VIEWER_STATE_FAILED</text><text fill="#000000" font-family="sans-serif" font-size="14" lengthAdjust="spacing" textLength="215" x="575.5" y="1379.5889">VIEWER_STATE_NOT_STARTED</text><text fill="#000000" font-family="sans-serif" font-size="14" lengthAdjust="spacing" textLength="178" x="575.5" y="1395.8857">VIEWER_STATE_STARTED</text><line style="stroke:#181818;stroke-width:0.5;" x1="570.5" x2="795.5" y1="1403.1875" y2="1403.1875"/></g><!--class ObjCallback--><g id="elem_ObjCallback"><rect codeLine="140" fill="#F1F1F1" height="96.8906" id="ObjCallback" rx="2.5" ry="2.5" style="stroke:#181818;stroke-width:0.5;" width="183" x="184.5" y="1306"/><ellipse cx="231.75" cy="1322" fill="#ADD1B2" rx="11" ry="11" style="stroke:#181818;stroke-width:1.0;"/><path d="M234.7188,1327.6406 Q234.1406,1327.9375 233.5,1328.0781 Q232.8594,1328.2344 232.1563,1328.2344 Q229.6563,1328.2344 228.3281,1326.5938 Q227.0156,1324.9375 227.0156,1321.8125 Q227.0156,1318.6875 228.3281,1317.0313 Q229.6563,1315.375 232.1563,1315.375 Q232.8594,1315.375 233.5,1315.5313 Q234.1563,1315.6875 234.7188,1315.9844 L234.7188,1318.7031 Q234.0938,1318.125 233.5,1317.8594 Q232.9063,1317.5781 232.2813,1317.5781 Q230.9375,1317.5781 230.25,1318.6563 Q229.5625,1319.7188 229.5625,1321.8125 Q229.5625,1323.9063 230.25,1324.9844 Q230.9375,1326.0469 232.2813,1326.0469 Q232.9063,1326.0469 233.5,1325.7813 Q234.0938,1325.5 234.7188,1324.9219 L234.7188,1327.6406 Z " fill="#000000"/><text fill="#000000" font-family="sans-serif" font-size="14" lengthAdjust="spacing" textLength="80" x="252.25" y="1326.8467">ObjCallback</text><line style="stroke:#181818;stroke-width:0.5;" x1="185.5" x2="366.5" y1="1338" y2="1338"/><ellipse cx="195.5" cy="1351.6484" fill="none" rx="3" ry="3" style="stroke:#038048;stroke-width:1.0;"/><text fill="#000000" font-family="sans-serif" font-size="14" lengthAdjust="spacing" textLength="157" x="204.5" y="1354.9951">func : ObjCallbackFunc</text><ellipse cx="195.5" cy="1367.9453" fill="none" rx="3" ry="3" style="stroke:#038048;stroke-width:1.0;"/><text fill="#000000" font-family="sans-serif" font-size="14" lengthAdjust="spacing" textLength="42" x="204.5" y="1371.292">id : int</text><ellipse cx="195.5" cy="1384.2422" fill="none" rx="3" ry="3" style="stroke:#038048;stroke-width:1.0;"/><text fill="#000000" font-family="sans-serif" font-size="14" lengthAdjust="spacing" textLength="78" x="204.5" y="1387.5889">data : void*</text><line style="stroke:#181818;stroke-width:0.5;" x1="185.5" x2="366.5" y1="1394.8906" y2="1394.8906"/></g><!--class ImageCallBack--><g id="elem_ImageCallBack"><rect codeLine="8" fill="#F1F1F1" height="80.5938" id="ImageCallBack" rx="2.5" ry="2.5" style="stroke:#181818;stroke-width:0.5;" width="256" x="1155" y="595"/><ellipse cx="1228.75" cy="611" fill="#ADD1B2" rx="11" ry="11" style="stroke:#181818;stroke-width:1.0;"/><path d="M1231.7188,616.6406 Q1231.1406,616.9375 1230.5,617.0781 Q1229.8594,617.2344 1229.1563,617.2344 Q1226.6563,617.2344 1225.3281,615.5938 Q1224.0156,613.9375 1224.0156,610.8125 Q1224.0156,607.6875 1225.3281,606.0313 Q1226.6563,604.375 1229.1563,604.375 Q1229.8594,604.375 1230.5,604.5313 Q1231.1563,604.6875 1231.7188,604.9844 L1231.7188,607.7031 Q1231.0938,607.125 1230.5,606.8594 Q1229.9063,606.5781 1229.2813,606.5781 Q1227.9375,606.5781 1227.25,607.6563 Q1226.5625,608.7188 1226.5625,610.8125 Q1226.5625,612.9063 1227.25,613.9844 Q1227.9375,615.0469 1229.2813,615.0469 Q1229.9063,615.0469 1230.5,614.7813 Q1231.0938,614.5 1231.7188,613.9219 L1231.7188,616.6406 Z " fill="#000000"/><text fill="#000000" font-family="sans-serif" font-size="14" lengthAdjust="spacing" textLength="100" x="1249.25" y="615.8467">ImageCallBack</text><line style="stroke:#181818;stroke-width:0.5;" x1="1156" x2="1410" y1="627" y2="627"/><ellipse cx="1166" cy="640.6484" fill="none" rx="3" ry="3" style="stroke:#038048;stroke-width:1.0;"/><text fill="#000000" font-family="sans-serif" font-size="14" lengthAdjust="spacing" textLength="230" x="1175" y="643.9951">func : viewer::ImageCallbackFunc</text><ellipse cx="1166" cy="656.9453" fill="none" rx="3" ry="3" style="stroke:#038048;stroke-width:1.0;"/><text fill="#000000" font-family="sans-serif" font-size="14" lengthAdjust="spacing" textLength="78" x="1175" y="660.292">data : void*</text><line style="stroke:#181818;stroke-width:0.5;" x1="1156" x2="1410" y1="667.5938" y2="667.5938"/></g><!--reverse link ScenarioPlayer to ObjCallback--><g id="link_ScenarioPlayer_ObjCallback"><path codeLine="158" d="M276,1250.1811 C276,1276.4204 276,1287.4059 276,1305.8622 " fill="none" id="ScenarioPlayer-backto-ObjCallback" style="stroke:#181818;stroke-width:1.0;"/><polygon fill="#181818" points="276,1238.1811,272,1244.1811,276,1250.1811,280,1244.1811,276,1238.1811" style="stroke:#181818;stroke-width:1.0;"/></g><!--SRC=[hLXVSzeu47ykdy9F5qgIzftft0pXJyiC0GwJtFN98-m5r1hBbMGIsibzzjkLR2CRI4YkF2JIxczNwzNkIjgF5zvayGr2hRoBZur663EblE66hQ3BulY6XT-zNurtbyii2Rssj-Nm0BBTBW4B10oGXv28QKOGmQDMuwdHQ2Hi0ofb8NWgX8H9BY1PyGH8eLt7p-dJcEr04ltTPPNMv8dsc5o5LrwuPh95u-rxxoAAeYMx8Fo_DO7tHEpwzy58hD2SVBG2sIA6K7m6gP0Qbsjx4tzOp0nt03fSTrcgCmcH-SQfHes4N2xzK08aXahWQwMPXW1vTc6VfaY_yAutcOP7PFZzu9Q6XdgP6bZ04wu31HkMheK4Y_ABgKLQBv-1lDPh2IoohBaPMms5m_lMuUtIqvRGgg8-e-KFREV0SahBjSSlllT-FxNyePgoJ45aFBKG8lP-_SX0xfuAzbyPrpD0cjAdKDSHLsmHGn2AH4iHno1La0Cj86OOPsjqYDoQpTjpS5E3BCNuWwWgyWFN3QHTkCAmVbCkxV8pw2cJ6BCO3MFyPqAF9n4yNc6WT4jU3p1u9TDS9AhTBidpNGejJ-DV-ZuJh7kzKgGWzQwkbePfpXiIwRJeFOkpryhUurQIJt_ZrrnJ_WK5ALzgmnvz3QdFVrAeuGQYjoEHuSevdoVFyj7K0N-4QCut526fYH0BgCR8ab21pc51YSetLJ8U1v6kaYyxKTJDb1QRBdwQPCrSCVeX7-tAqSzoj2v7wPKDLhjsAXGPXyvyY_9p55bFYFGrragXZoiRyTLQ-oAJ8Pod2LL0ehZUrVNPGy97ff1DEsbvOl5jxoUXWiVAR5UPERx5rEF9gfmdm6I0wQzBolA08BPVRCXZhE7g5Ui65BDDurjR78ADY60FoG6vgZ9wLBuVnsKm9hiYGs_O-azBxqEHkEDiim0vMRgEKIzWo_GgWNM0JMWEQf-lnv7vWXsjMRYcWB5sD6rsEHlql4L5YQWRL5fgwuxLQazWEjQlx37lROdxdEGDUlY8D3d-ZvUbUsRBZiZRlJn3mp3HHyGHVOQihoM6wH5nXt9KZJaQJuH2uV1N-xKY-5gtLeJVujMAWjSvjIBwDfyEyIRKhCtjBSIbZWIBzkSQbW_95naTR4sbetPRcQMn_CP0Ipg2Fjk2kTUfkHWWs-HUWjbX2eSwWPnrRlEYGzljWl9BrFDbvplibh9cnnbvPod7e-GSUVgqjyZbd_4MKPVo5ddZhYE2BwNI2wvwIVo4fruIE-sey-mzwQUNn8-vYQvhOR2VceZ3AxOvs89AcavwirkMO6ZRd9AOJ1ixRxSdAIGzoRTWtr0HdfQMzJmG7Y58cLxJGauAaY5qPPSG0gUZbqMHF8HehkEyNXmmYyTKVdON_2pXM6o3LCjF-QFCyFyqLY- -5G_M0hx5CrB8JvCzno2LELeFGUKntt9W0uaNhMnJGnVlP8kdKfNZh2Y-EosdXt4VKebotjQ7JEFC_57e06q5D4oweFd3Ki0KC64i3iex12M2UHl7Ge5JFGjwJxA72e6gR7V_6fiAfOitTWrr3siUnd2BLwYuUZaiREqoQRWjZ-vPiQjWYdkgxnG6K4Nl35POml6EijyTUoUAhZo7Hiq7ZxeJnT59RGXNJzaUGFDjHQvmwq-FMhckOT79T43G0PyfM_sv2aHIJLxtY764dLUm5QNdQGrZhmvEHs5_kfIejNYeNZgDikB-Mi8q06MB1L7zu8elyiFDZOrwvIWKt9aNTTu_gJZD1ezpxQPEXGkeTbbiHwWQmfRqr6YyWmIpfzh3mNUeum3g2ar7dQ_zMU3FE_D-CEtS-Vq38aw6uyzriZ_lJ-kqkt6lFnYE-xrd3CZtAGz_2brZHtSodiyce-3cQu2FQ8VG_sVUduqx8uVqvUlDRDXp2CDnWJcvhDDQCUlT3_j_btRt9kD-dJRe34Vq8LNgU3AdqMn-o2h9P8FjmZdPP5jmURElbcN4uT7-pAZq-r0TjVpmz_726oPh33tDaX2VfX3RviAQfxR5Q36TrKh2oh2EOAeDmm-rFc7h-hhMKlpWsDeexHYRVbCUxESelZnKN4LyS7jz_r_ROPJz1gLkUmv__m40]--></g></svg>